<?xml version="1.0" standalone="no"?>
<!DOCTYPE svg PUBLIC "-//W3C//DTD SVG 20010904//EN"
 "http://www.w3.org/TR/2001/REC-SVG-20010904/DTD/svg10.dtd">
<svg version="1.0" xmlns="http://www.w3.org/2000/svg"
 width="410.000000pt" height="410.000000pt" viewBox="0 0 410.000000 410.000000"
 preserveAspectRatio="xMidYMid meet">
<metadata>
Created by potrace 1.14, written by Peter Selinger 2001-2017
</metadata>
<g transform="translate(0.000000,410.000000) scale(0.100000,-0.100000)"
fill="#000000" stroke="none">
<path d="M2 3048 l3 -503 35 -1 c19 -1 44 -4 55 -7 11 -4 58 -9 105 -12 77 -5
133 -15 177 -32 12 -5 14 -3 8 7 -6 10 2 11 41 5 27 -4 83 -8 124 -9 42 -1 82
-6 89 -10 7 -5 81 -12 164 -17 84 -5 172 -10 197 -12 54 -3 149 -27 169 -41
11 -8 13 -8 7 2 -11 19 5 14 20 -5 12 -17 13 -16 9 4 -4 22 -3 22 30 8 19 -7
37 -10 40 -5 6 9 74 4 84 -5 3 -3 -8 -18 -24 -33 -16 -15 -22 -18 -13 -7 12
14 14 25 8 35 -5 8 -10 10 -10 5 0 -6 -14 -12 -32 -13 -18 -2 -39 -9 -48 -16
-8 -7 -22 -17 -30 -21 -12 -7 -13 -6 -3 6 10 12 8 15 -7 15 -10 0 -16 -4 -14
-8 3 -4 -1 -8 -8 -8 -7 0 -25 -7 -40 -14 -20 -11 -28 -12 -28 -3 0 7 -7 4 -14
-6 -8 -10 -18 -19 -23 -20 -4 -1 -7 -6 -5 -10 1 -5 -2 -6 -7 -2 -13 8 -63 -24
-56 -36 3 -5 -11 -16 -32 -25 -21 -9 -32 -18 -26 -21 24 -9 13 -31 -37 -73
-27 -23 -50 -37 -50 -32 0 5 12 18 28 27 15 10 35 26 45 37 18 18 18 19 -10
12 -15 -3 -44 -17 -64 -30 -19 -13 -42 -24 -51 -24 -9 0 -26 -12 -37 -26 -15
-19 -21 -22 -21 -11 0 9 5 19 10 22 6 4 8 11 4 16 -3 5 -2 9 3 8 4 -1 10 0 13
1 3 1 13 3 23 5 36 7 47 14 41 30 -3 8 -11 12 -18 8 -6 -3 0 5 12 19 22 24 22
27 5 31 -16 4 -16 5 0 6 9 0 17 5 17 10 0 5 8 8 18 7 9 0 16 5 14 12 -1 8 2
11 8 7 6 -4 17 0 23 8 7 8 33 22 60 32 26 10 47 20 47 22 0 3 -7 2 -16 -1 -8
-3 -25 -1 -36 5 -12 7 -18 7 -14 1 5 -9 -43 -34 -69 -36 -5 -1 -16 -8 -22 -17
-12 -16 -73 -44 -73 -34 0 3 17 14 38 25 20 12 30 19 22 17 -27 -8 -163 -50
-320 -99 -234 -74 -240 -76 -235 -67 3 4 1 10 -5 14 -5 3 -10 12 -10 18 0 7 4
6 11 -3 9 -12 10 -12 5 3 -3 10 -6 21 -6 23 0 2 -11 4 -24 4 -44 0 -73 -49
-45 -77 24 -24 -182 -42 -219 -19 -8 5 -12 -1 -12 -14 0 -19 4 -21 28 -17 l27
6 -28 -12 -27 -11 0 -563 c0 -357 4 -563 10 -563 6 0 10 -5 10 -11 0 -5 -4 -8
-10 -4 -5 3 -9 -50 -9 -140 l-1 -145 35 0 c34 0 46 -12 24 -26 -6 -3 -16 -1
-22 5 -23 23 -37 12 -37 -29 l0 -40 331 0 c278 0 330 2 320 14 -6 7 -23 12
-39 10 -27 -4 -27 -4 -2 5 14 5 37 9 53 10 31 1 34 9 11 26 -16 11 -16 12 -1
18 9 3 16 3 15 -1 -1 -4 4 -17 11 -30 7 -13 10 -30 7 -38 -4 -11 8 -14 64 -14
42 0 70 4 70 10 0 7 6 7 19 0 28 -15 454 -13 445 2 -5 7 -2 8 7 2 24 -15 39
-13 39 5 0 9 -4 21 -9 27 -6 5 -4 14 5 22 12 11 15 8 21 -20 4 -18 6 -36 5
-39 -1 -4 60 -8 135 -8 129 -2 135 -1 122 16 -13 17 -13 17 13 0 32 -20 62
-22 55 -4 -2 6 -11 12 -20 12 -8 0 -19 4 -24 9 -4 5 -3 6 4 2 6 -3 14 -2 17 3
4 5 -5 8 -19 6 -15 -1 -24 2 -22 8 4 14 57 21 57 7 0 -5 7 -10 16 -10 9 0 13
-5 9 -12 -4 -7 0 -5 8 5 13 16 15 16 21 1 9 -22 8 -26 -6 -18 -7 4 -8 3 -4 -5
4 -6 12 -9 17 -6 5 4 9 2 9 -4 0 -15 280 -13 299 2 12 9 13 9 7 0 -4 -8 -2
-13 8 -13 8 0 18 5 21 10 4 7 11 8 18 2 14 -11 219 -13 212 -2 -2 4 4 15 14
24 30 27 88 9 82 -26 0 -5 4 -8 10 -8 6 0 8 8 5 18 -6 16 -5 15 8 -1 12 -15
27 -18 95 -16 45 1 81 6 81 12 0 6 5 6 13 -1 19 -16 860 -16 851 0 -6 10 -4
11 7 1 7 -7 38 -13 71 -13 50 0 57 2 52 18 -5 16 -5 16 8 0 12 -14 37 -16 166
-17 l152 0 0 25 c0 21 3 23 20 14 11 -6 17 -16 14 -25 -7 -17 31 -21 56 -5 9
6 17 5 21 -2 4 -6 15 -8 24 -4 14 5 15 9 5 21 -11 13 -10 14 4 9 15 -6 16 53
16 755 0 529 -3 761 -11 761 -5 0 -7 5 -3 12 5 8 2 9 -9 5 -10 -4 -17 -2 -17
4 0 22 -45 64 -64 61 -11 -2 -16 0 -12 6 4 6 -4 21 -16 33 -13 12 -17 19 -10
15 6 -4 12 -2 12 3 0 6 -4 11 -10 11 -5 0 -10 7 -10 15 0 10 10 15 34 15 l34
0 -14 -30 c-17 -32 -12 -52 10 -44 16 6 29 44 15 44 -5 0 -9 -6 -9 -14 0 -8
-4 -17 -9 -20 -5 -4 -7 4 -4 16 7 26 33 68 33 53 0 -6 13 -10 28 -10 23 0 28
5 30 26 2 23 -2 27 -25 27 -16 0 -33 -4 -39 -9 -7 -6 -22 -5 -39 1 -15 6 -31
7 -37 4 -6 -4 -8 -2 -4 4 3 6 -3 13 -14 17 -11 3 -28 17 -38 29 -10 13 -32 27
-50 31 -18 3 -30 10 -28 13 2 4 -6 8 -17 9 -12 1 -46 5 -74 9 -29 3 -53 3 -53
-2 0 -11 -67 -10 -93 1 -26 11 -42 -8 -23 -27 8 -9 12 -19 8 -22 -3 -4 1 -4
11 0 9 3 14 11 10 18 -3 6 3 3 15 -8 12 -10 19 -23 16 -27 -3 -5 3 -6 12 -2
13 5 16 3 11 -10 -4 -11 -1 -17 8 -17 8 0 12 -6 10 -13 -3 -6 4 -18 15 -24 17
-11 18 -10 13 5 -6 14 -4 15 9 5 8 -7 17 -11 20 -8 3 3 13 -4 23 -15 19 -21
19 -21 -9 -10 -15 5 -34 6 -42 2 -12 -7 -10 -11 11 -22 14 -7 25 -17 25 -21 0
-8 -38 15 -98 56 -12 9 -20 20 -17 24 2 5 -3 15 -13 22 -16 13 -16 13 -2 -5
13 -17 13 -19 0 -15 -8 3 -28 30 -43 62 -19 39 -34 57 -47 57 -10 0 -20 4 -22
10 -1 5 -18 12 -36 16 -29 6 -33 4 -43 -25 -6 -17 -15 -29 -19 -26 -5 3 -12 0
-16 -6 -4 -8 -3 -9 4 -5 7 4 12 3 12 -1 0 -5 -13 -17 -30 -26 -16 -10 -30 -23
-30 -30 0 -8 3 -8 12 1 7 7 16 12 22 12 5 0 6 -3 3 -7 -7 -6 21 -32 36 -33 11
0 8 35 -5 48 -9 9 -9 12 1 12 7 0 10 4 7 8 -3 5 1 9 8 9 8 0 12 -6 9 -14 -3
-7 0 -13 6 -13 6 0 10 -3 10 -7 -3 -20 2 -33 14 -33 7 0 13 15 14 35 2 27 0
33 -12 29 -8 -4 -15 -1 -15 5 0 17 19 13 56 -10 35 -21 43 -31 22 -26 -6 1
-14 -7 -16 -18 -3 -16 -1 -18 9 -7 15 14 33 16 24 2 -3 -5 -2 -10 4 -10 16 0
93 -54 82 -58 -6 -2 -9 -8 -6 -12 3 -5 -4 -7 -16 -5 -22 4 -22 4 1 -20 24 -25
36 -33 25 -16 -3 5 7 11 22 13 30 4 89 -21 139 -59 33 -25 59 -31 48 -10 -4 6
4 2 17 -10 19 -19 21 -25 10 -35 -11 -11 -13 -10 -8 4 3 10 2 20 -3 23 -9 6
-26 -33 -21 -50 1 -5 -6 -2 -17 8 -10 9 -22 14 -26 10 -4 -5 -7 -3 -6 2 5 21
0 36 -10 30 -6 -4 -7 -11 -4 -17 4 -6 1 -9 -7 -6 -8 3 -13 16 -11 29 1 16 -6
29 -20 38 -20 13 -22 12 -11 -1 7 -8 9 -19 5 -23 -4 -5 -1 -5 6 -1 6 4 12 2
12 -3 0 -6 -16 -11 -35 -11 -27 0 -35 4 -35 18 -1 15 -2 15 -15 -2 -14 -18
-15 -18 -15 -2 0 16 -1 16 -16 2 -19 -19 -31 -21 -16 -3 9 10 5 13 -15 12 -19
0 -39 12 -65 40 -21 22 -38 36 -37 30 4 -26 -5 -23 -58 21 -32 27 -48 37 -36
23 l23 -25 -23 -23 c-17 -18 -18 -22 -5 -18 10 3 20 2 23 -3 3 -6 15 -15 27
-21 15 -8 19 -8 13 1 -5 8 0 7 14 -2 31 -19 34 -39 10 -62 -12 -12 -18 -14
-14 -6 6 11 2 10 -12 -3 -20 -17 -21 -17 -27 7 -9 36 -43 53 -64 32 -14 -13
-14 -18 -3 -28 9 -9 12 -9 7 -1 -9 16 14 29 24 13 11 -18 1 -40 -16 -33 -8 3
-14 -1 -14 -11 0 -26 -17 -18 -19 9 -3 49 -4 53 -18 48 -7 -3 -13 0 -13 7 0 8
9 11 24 8 16 -3 27 0 30 9 9 22 9 21 -34 43 -22 11 -40 16 -40 10 0 -5 5 -10
12 -10 9 0 9 -3 0 -12 -10 -10 -15 -10 -23 2 -8 11 -9 9 -5 -12 9 -41 -10 -43
-26 -2 -14 34 -16 35 -31 19 -9 -9 -17 -14 -17 -10 0 3 -9 1 -20 -5 -11 -6
-20 -15 -20 -20 0 -6 9 -10 20 -10 11 0 20 5 20 11 0 5 5 7 12 3 8 -5 5 -13
-10 -24 -12 -10 -18 -21 -14 -26 4 -5 -1 -2 -10 5 -16 12 -18 11 -18 -5 0 -16
-2 -16 -9 -4 -6 8 -7 18 -5 22 3 4 1 8 -4 8 -5 0 -7 13 -4 29 3 20 -3 40 -17
60 -25 35 -26 42 -5 34 16 -6 16 4 -4 56 -3 9 -1 12 5 8 6 -4 13 -4 16 0 2 5
2 2 1 -4 -2 -7 1 -13 6 -13 5 0 11 -6 13 -12 2 -7 3 0 1 16 -4 26 -2 27 14 15
9 -8 23 -21 30 -29 10 -13 11 -12 5 5 -5 18 -3 17 23 -5 24 -22 24 -19 -6 16
-19 22 -40 39 -47 36 -6 -2 -21 2 -32 8 -17 9 -22 8 -28 -5 -4 -12 -8 -13 -13
-5 -7 12 -35 18 -106 24 -16 1 -36 6 -44 11 -9 6 -11 4 -5 -5 6 -10 4 -12 -8
-7 -10 4 -20 0 -26 -11 -9 -15 -10 -15 -11 4 0 28 -68 89 -121 110 -22 9 -38
18 -36 21 2 2 16 -1 31 -6 14 -6 26 -7 26 -2 0 13 110 20 175 10 33 -5 65 -9
70 -10 13 -1 136 20 154 27 45 15 -90 55 -201 59 -38 1 -95 8 -129 15 -40 9
-63 10 -67 3 -21 -31 -113 -34 -172 -4 -21 11 -20 8 8 -18 17 -17 32 -34 32
-38 0 -4 -12 5 -27 19 -37 35 -73 48 -138 48 -45 0 -55 4 -69 25 -15 23 -19
24 -39 11 -33 -20 -101 -31 -91 -14 4 8 3 10 -2 5 -5 -5 -9 -14 -9 -20 0 -5
-10 -11 -23 -12 -26 -2 -76 50 -66 67 4 6 2 8 -4 5 -5 -4 -30 1 -54 12 -24 10
-83 21 -133 25 -81 7 -127 14 -204 32 -20 4 -22 7 -10 16 11 8 11 9 -4 4 -9
-3 -39 3 -65 13 -26 10 -88 26 -138 37 -82 16 -99 16 -164 4 -79 -15 -147 -5
-182 27 -10 9 -18 12 -18 8 0 -5 -5 -4 -12 3 -7 7 -20 12 -31 12 -11 0 -15 4
-11 12 4 7 3 8 -5 4 -6 -4 -9 -12 -6 -17 4 -5 -6 -9 -20 -9 -31 0 -81 -24 -93
-46 -5 -9 -35 -20 -76 -27 -62 -10 -67 -13 -63 -34 2 -12 0 -20 -4 -17 -5 3
-9 13 -10 22 0 11 -3 12 -6 5 -2 -8 -22 -13 -44 -13 -24 0 -38 4 -34 10 4 6
-6 7 -27 3 -30 -6 -31 -5 -17 9 8 9 35 19 60 24 24 4 46 8 49 9 3 1 20 5 38 9
22 5 38 4 45 -3 15 -15 49 -14 71 2 16 12 16 14 2 26 -9 7 -28 14 -43 14 -16
1 -31 6 -34 10 -4 5 -57 11 -118 12 -62 2 -128 9 -147 15 -19 7 -41 9 -49 6
-19 -7 -31 14 -14 25 8 5 55 9 106 9 53 0 95 4 98 11 4 5 19 9 33 7 15 -1 49
1 75 5 31 6 60 4 84 -4 32 -10 38 -9 49 6 8 10 20 15 29 11 9 -3 18 0 21 9 9
21 40 19 64 -5 19 -19 31 -20 157 -17 133 4 137 3 159 -20 12 -12 30 -23 40
-23 11 -1 30 -7 43 -14 14 -8 32 -11 40 -8 14 5 14 3 3 -10 -11 -14 -8 -18 19
-32 36 -18 109 -22 109 -5 0 5 -6 7 -12 3 -10 -5 -10 -3 0 7 9 10 15 11 20 2
11 -17 122 -15 122 2 0 8 9 19 20 25 11 6 20 15 20 20 0 14 -44 12 -58 -2 -16
-16 -28 -2 -13 16 9 11 9 16 0 22 -7 4 -18 0 -25 -10 -7 -10 -18 -15 -24 -11
-6 3 -20 -4 -31 -17 l-21 -23 16 28 c13 22 14 32 5 49 -11 21 -12 21 -26 2
-13 -18 -14 -17 -38 11 -13 17 -24 32 -25 35 0 4 24 7 53 8 136 4 221 14 243
29 22 14 28 11 25 -9 -4 -27 154 38 166 68 3 8 10 11 15 8 6 -4 13 -2 17 3 3
5 30 26 59 46 29 20 61 45 70 56 19 22 171 101 195 101 9 0 18 -3 20 -7 3 -5
28 -6 56 -5 28 2 48 8 45 13 -3 5 6 13 19 18 14 6 28 14 31 19 3 6 33 10 67
11 51 0 59 -2 50 -13 -14 -17 2 -31 22 -21 6 4 4 0 -5 -8 -16 -12 -16 -16 -2
-36 9 -12 22 -20 30 -17 8 3 14 -1 14 -8 0 -9 -8 -13 -22 -10 -18 3 -17 1 5
-8 15 -7 27 -15 27 -20 0 -15 38 -8 44 8 4 10 2 13 -6 8 -7 -5 -9 0 -6 14 6
23 -7 31 -15 10 -3 -7 -6 -1 -6 14 -1 15 -6 30 -13 34 -6 4 -8 3 -4 -4 3 -6 2
-13 -4 -17 -6 -4 -10 9 -10 32 0 22 -6 45 -12 52 -11 11 -9 12 11 6 43 -13 85
-10 124 10 33 17 41 17 60 5 56 -35 232 -120 250 -120 10 0 21 -9 24 -20 7
-25 19 -26 32 -2 10 16 10 16 11 0 0 -10 6 -18 14 -18 8 0 17 -7 20 -16 5 -12
1 -14 -15 -9 -15 5 -19 4 -14 -5 4 -6 17 -9 30 -6 15 4 29 -2 44 -18 27 -29
117 -70 137 -62 8 3 14 -1 14 -10 0 -9 9 -18 20 -21 23 -6 23 -40 1 -35 -7 1
-10 -2 -6 -8 3 -6 11 -8 16 -5 5 4 9 0 9 -8 0 -14 49 -42 58 -32 8 8 -29 45
-39 39 -5 -3 -9 2 -9 10 0 21 12 20 43 -4 16 -13 28 -16 32 -10 10 16 54 12
86 -7 28 -17 32 -17 59 -1 24 13 31 14 40 3 8 -10 7 -14 -2 -17 -21 -7 9 -37
31 -31 11 3 30 -2 43 -11 13 -9 45 -20 71 -25 l47 -8 0 298 0 299 -2050 0
-2050 0 2 -502z m262 148 c-3 -9 11 -19 45 -30 28 -9 54 -16 58 -15 21 3 21
-3 3 -21 -11 -11 -26 -17 -35 -14 -8 4 -15 2 -15 -4 0 -6 -3 -17 -6 -26 -4
-12 0 -16 16 -16 12 0 33 -9 47 -20 14 -11 21 -20 14 -20 -6 0 -11 -5 -11 -11
0 -7 13 -9 38 -4 26 4 43 1 57 -10 16 -12 17 -14 3 -9 -13 4 -18 1 -18 -11 0
-15 -7 -17 -52 -11 -29 4 -58 13 -64 21 -7 9 -28 15 -52 15 -26 0 -42 5 -46
15 -4 12 -10 13 -29 4 -19 -9 -31 -7 -56 5 -37 20 -39 31 -8 47 28 15 37 28
37 57 0 15 -7 26 -20 29 -36 10 -11 21 27 12 50 -11 55 -11 47 2 -3 6 0 15 7
20 19 12 19 11 13 -5z m412 -27 c22 -18 17 -25 -28 -38 -28 -9 -48 -10 -62 -3
-12 5 -34 15 -50 21 -50 21 -4 40 82 35 24 -2 50 -8 58 -15z m419 -159 c3 -5
-1 -10 -9 -10 -9 0 -16 5 -16 10 0 6 4 10 9 10 6 0 13 -4 16 -10z m-1010 -100
c4 -6 -7 -10 -24 -10 -17 0 -31 5 -31 10 0 6 11 10 24 10 14 0 28 -4 31 -10z
m870 -199 c3 -5 0 -13 -6 -17 -7 -4 -9 -3 -5 4 3 5 0 13 -6 15 -9 4 -10 6 -1
6 6 1 14 -3 18 -8z m625 -1 c0 -5 -5 -10 -11 -10 -5 0 -7 5 -4 10 3 6 8 10 11
10 2 0 4 -4 4 -10z m199 -64 c1 -5 -7 -2 -16 5 -15 12 -16 12 -10 -3 3 -10 0
-29 -8 -44 l-14 -27 -6 26 c-4 15 -12 27 -17 27 -6 0 -8 6 -5 14 3 8 1 17 -6
20 -7 2 -4 5 6 5 9 1 17 -6 17 -14 0 -23 15 -18 30 11 13 23 15 24 21 7 4 -10
8 -22 8 -27z m-165 14 c-10 -4 -23 -5 -28 -2 -5 3 -1 9 10 12 10 4 23 5 28 2
5 -3 1 -9 -10 -12z m221 -9 c-3 -12 -11 -19 -16 -16 -5 4 -9 2 -9 -3 0 -6 -6
-12 -14 -15 -11 -5 -11 0 2 23 9 16 20 26 24 24 5 -3 8 0 8 7 0 7 3 10 6 6 3
-3 3 -15 -1 -26z m-815 -15 c0 -17 -14 -29 -23 -20 -8 8 3 34 14 34 5 0 9 -6
9 -14z m607 -19 c0 -7 -9 -14 -20 -14 -19 -2 -19 -2 -1 12 11 8 19 15 20 15 0
0 1 -6 1 -13z m-612 -35 c-3 -3 -11 0 -18 7 -9 10 -8 11 6 5 10 -3 15 -9 12
-12z m668 -52 c3 -11 3 -20 1 -20 -2 0 -8 9 -14 20 -6 11 -7 20 -2 20 6 0 12
-9 15 -20z m520 -7 c-3 -7 -6 -13 -8 -13 -2 0 -5 6 -8 13 -3 8 1 14 8 14 7 0
11 -6 8 -14z m-27 -5 c5 -8 2 -9 -11 -4 -14 5 -15 3 -7 -6 5 -7 11 -31 13 -53
1 -22 9 -48 17 -57 7 -9 12 -25 9 -35 -4 -14 -5 -13 -6 5 0 12 -8 25 -16 28
-8 4 -15 13 -15 21 0 8 -4 12 -9 8 -9 -5 -24 24 -26 50 -1 14 25 55 36 55 4 0
11 -5 15 -12z m484 -19 c0 -6 -4 -7 -10 -4 -5 3 -10 11 -10 16 0 6 5 7 10 4 6
-3 10 -11 10 -16z m-452 -24 c-3 -3 -9 2 -12 12 -6 14 -5 15 5 6 7 -7 10 -15
7 -18z m202 -48 c0 -4 -18 9 -40 29 -22 21 -40 39 -40 41 0 8 80 -62 80 -70z
m294 13 c-6 -6 -10 2 -11 23 -2 30 -1 31 9 9 7 -14 8 -26 2 -32z m-1327 -26
c1 -25 0 -26 -4 -4 -3 14 -10 29 -17 33 -7 6 -6 7 4 4 8 -2 16 -16 17 -33z
m1373 21 c7 -8 9 -15 6 -15 -4 0 -14 7 -22 15 -9 8 -11 15 -6 15 5 0 15 -7 22
-15z m771 -32 c13 -16 12 -17 -3 -4 -17 13 -22 21 -14 21 2 0 10 -8 17 -17z
m-444 -35 c-3 -8 -6 -5 -6 6 -1 11 2 17 5 13 3 -3 4 -12 1 -19z m-480 -10 c-3
-8 -6 -5 -6 6 -1 11 2 17 5 13 3 -3 4 -12 1 -19z m359 -3 c-20 -15 -29 -52
-15 -61 4 -2 14 3 23 11 13 13 15 12 14 -15 -1 -27 -18 -45 -18 -19 0 7 -10 9
-25 7 -14 -3 -25 -1 -25 3 0 5 5 9 11 9 5 0 7 5 4 10 -4 6 -11 8 -16 5 -5 -4
-9 -1 -9 5 0 7 7 9 16 6 12 -4 15 -2 11 9 -4 8 3 21 16 30 27 19 38 19 13 0z
m-1779 -20 c0 -8 -4 -12 -9 -9 -5 4 -20 -4 -34 -17 -13 -12 -24 -19 -24 -15 0
5 -11 1 -24 -8 -16 -10 -27 -12 -31 -6 -4 6 -11 8 -16 4 -6 -4 -6 -10 0 -18 8
-9 7 -13 -3 -13 -17 0 -15 23 3 40 11 9 14 9 18 0 3 -9 20 -1 50 22 49 38 70
44 70 20z m1835 -7 c-7 -7 -12 -8 -12 -2 0 14 12 26 19 19 2 -3 -1 -11 -7 -17z
m48 0 c0 -5 5 -6 10 -3 6 4 8 11 5 16 -3 5 1 6 9 3 10 -4 13 -16 10 -37 -2
-17 2 -37 8 -45 10 -11 8 -18 -7 -31 -21 -17 -25 -34 -12 -47 10 -10 9 -24 -2
-24 -8 0 -24 36 -23 50 0 3 -9 6 -21 7 -12 0 -16 -1 -9 -4 6 -3 12 -13 12 -24
0 -10 6 -19 13 -19 9 0 8 -3 -2 -9 -7 -5 -22 -6 -32 -4 -27 7 -24 -2 7 -22 15
-9 24 -12 20 -7 -3 6 -1 14 6 18 7 4 10 4 6 -1 -4 -4 -1 -23 7 -42 17 -41 19
-53 5 -53 -5 0 -7 7 -4 15 4 10 0 15 -14 15 -24 0 -48 25 -32 35 6 4 2 13 -12
25 l-23 19 25 10 c14 5 19 10 11 10 -10 1 -12 9 -7 32 3 17 1 40 -6 52 -26 47
-13 59 24 25 19 -19 25 -44 8 -33 -6 3 -7 -1 -4 -9 3 -9 10 -13 15 -10 13 7
11 38 -2 51 -18 18 -20 63 -3 56 8 -3 14 -9 14 -15z m-1702 -30 c-5 -23 -10
-43 -11 -43 -1 -1 -14 -9 -29 -18 -15 -9 -33 -17 -39 -17 -17 0 -71 -59 -64
-70 3 -6 2 -10 -2 -10 -12 0 -15 -48 -4 -69 7 -13 5 -17 -7 -17 -14 0 -17 9
-16 43 1 24 8 51 15 60 8 9 12 17 10 17 -2 1 -1 11 3 24 4 12 12 19 18 16 6
-4 8 -3 5 3 -6 10 61 48 78 44 6 -1 5 3 -2 10 -10 10 -15 9 -28 -1 -8 -7 -15
-9 -15 -5 0 4 -7 2 -15 -5 -9 -7 -18 -10 -21 -7 -3 3 16 21 43 42 42 32 49 34
59 20 10 -14 12 -13 17 5 10 39 15 20 5 -22z m1019 0 c-3 -7 -5 -2 -5 12 0 14
2 19 5 13 2 -7 2 -19 0 -25z m-1128 5 c-22 -28 -42 -66 -30 -58 6 3 11 2 11
-4 0 -12 -49 -51 -65 -51 -7 0 -18 -7 -25 -15 -7 -9 -15 -13 -18 -10 -3 3 10
22 29 41 28 30 29 34 8 20 -14 -9 -29 -13 -32 -9 -4 3 -7 1 -7 -5 0 -10 -43
-30 -46 -21 -1 2 -11 -5 -23 -15 -12 -11 -23 -17 -25 -15 -3 2 12 15 32 28 20
13 49 32 64 43 15 10 31 18 36 18 5 0 17 9 27 20 10 11 24 20 30 20 7 0 18 7
25 15 7 8 15 15 18 15 3 0 -1 -8 -9 -17z m2694 -13 c-3 -12 -8 -19 -11 -16 -5
6 5 36 12 36 2 0 2 -9 -1 -20z m-2203 6 c0 -2 -8 -10 -17 -17 -16 -13 -17 -12
-4 4 13 16 21 21 21 13z m791 -10 c-12 -15 -54 -18 -45 -4 3 4 11 5 18 2 8 -3
17 -1 21 5 3 6 9 11 12 11 3 0 0 -6 -6 -14z m124 -5 c3 -5 1 -12 -5 -16 -5 -3
-10 1 -10 9 0 18 6 21 15 7z m-1865 -15 c0 -2 -8 -10 -17 -17 -16 -13 -17 -12
-4 4 13 16 21 21 21 13z m2961 -13 c13 -16 12 -17 -3 -4 -10 7 -18 15 -18 17
0 8 8 3 21 -13z m-2291 -3 c0 -5 -2 -10 -4 -10 -3 0 -8 5 -11 10 -3 6 -1 10 4
10 6 0 11 -4 11 -10z m-760 -4 c0 -2 -7 -7 -16 -10 -8 -3 -12 -2 -9 4 6 10 25
14 25 6z m116 -11 c-1 -8 -11 -22 -22 -30 -18 -15 -18 -15 0 -8 14 5 17 3 11
-6 -5 -9 -19 -11 -40 -8 -25 4 -38 1 -51 -14 -9 -10 -22 -19 -27 -19 -6 0 1
13 16 28 25 26 64 41 51 20 -3 -4 0 -8 5 -8 6 0 11 5 11 12 0 13 29 48 41 48
4 0 6 -7 5 -15z m1787 -16 c3 -12 12 -19 19 -17 7 3 19 -7 26 -21 7 -14 10
-18 8 -9 -8 28 13 32 35 7 10 -12 22 -19 26 -15 4 3 -2 13 -13 22 -18 15 -18
15 6 9 14 -3 32 -8 40 -10 8 -2 18 -4 23 -4 4 -1 7 -5 7 -11 0 -5 -14 -10 -31
-10 -24 0 -30 -4 -25 -16 4 -10 2 -13 -7 -7 -17 11 -117 14 -117 3 0 -9 -35
-6 -62 5 -10 4 -18 12 -18 19 0 6 -15 17 -32 24 -26 10 -30 14 -18 22 8 5 17
7 21 4 4 -2 26 -6 50 -9 24 -3 47 -11 51 -18 12 -19 10 10 -2 34 -6 11 -7 19
-2 19 6 0 12 -9 15 -21z m47 17 c0 -3 -4 -8 -10 -11 -5 -3 -10 -1 -10 4 0 6 5
11 10 11 6 0 10 -2 10 -4z m785 -6 c3 -5 2 -10 -4 -10 -5 0 -13 5 -16 10 -3 6
-2 10 4 10 5 0 13 -4 16 -10z m-2715 -4 c0 -2 -8 -10 -17 -17 -16 -13 -17 -12
-4 4 13 16 21 21 21 13z m339 -13 c-6 -7 -15 -10 -20 -7 -13 8 -3 21 15 21 12
0 13 -4 5 -14z m2470 -17 c-3 -3 -11 5 -18 17 -13 21 -12 21 5 5 10 -10 16
-20 13 -22z m-592 2 c-3 -8 -6 -5 -6 6 -1 11 2 17 5 13 3 -3 4 -12 1 -19z
m867 -10 c30 -27 5 -21 -29 7 -21 17 -24 23 -10 18 11 -4 29 -15 39 -25z m123
15 c3 -7 -3 -9 -17 -6 -28 8 -34 20 -8 19 12 0 23 -6 25 -13z m-3268 -19 c-6
-8 -18 -14 -26 -14 -8 0 -21 -7 -29 -15 -19 -19 -13 -19 30 -1 27 11 33 11 33
0 0 -8 -11 -24 -24 -36 -19 -18 -26 -20 -32 -9 -6 9 -18 11 -35 7 -47 -12 -48
5 -3 34 24 15 54 31 66 35 12 3 18 11 15 17 -4 7 -2 8 5 4 9 -6 9 -11 0 -22z
m781 -4 c-6 -11 -15 -18 -21 -14 -6 4 -6 11 2 20 17 21 31 17 19 -6z m1810 -5
c0 -8 -10 -19 -22 -25 -19 -9 -21 -9 -8 2 9 7 14 21 12 32 -2 11 0 16 7 12 6
-4 11 -14 11 -21z m-2660 10 c0 -2 -10 -10 -22 -16 -21 -11 -22 -11 -9 4 13
16 31 23 31 12z m-115 -35 c-19 -21 -35 -26 -35 -12 0 5 10 14 23 20 31 15 32
14 12 -8z m485 5 c0 -2 -10 -9 -22 -15 -22 -11 -22 -10 -4 4 21 17 26 19 26
11z m125 -4 c3 -5 0 -13 -6 -17 -7 -4 -9 -3 -5 4 3 5 0 13 -6 15 -9 4 -10 6
-1 6 6 1 14 -3 18 -8z m1848 -14 c-3 -6 -1 -7 6 -3 13 9 51 -2 51 -14 0 -5 -9
-12 -20 -15 -16 -5 -19 -12 -14 -28 6 -19 5 -20 -9 -8 -9 7 -14 17 -11 22 3 5
2 8 -3 7 -14 -5 -55 29 -44 37 6 3 16 3 23 -1 7 -5 9 -2 5 9 -4 11 -2 14 8 10
8 -3 12 -10 8 -16z m-2503 -7 c0 -5 -2 -10 -4 -10 -3 0 -8 5 -11 10 -3 6 -1
10 4 10 6 0 11 -4 11 -10z m-48 -13 c-12 -7 -19 -16 -16 -20 4 -4 2 -7 -4 -7
-7 0 -12 4 -12 10 0 10 29 29 45 29 6 0 0 -5 -13 -12z m1033 4 c-3 -5 4 -12
15 -16 11 -4 18 -11 14 -16 -4 -6 -11 -6 -19 1 -7 6 -15 7 -17 2 -1 -5 -16 -3
-33 4 l-30 12 35 10 c19 6 36 11 38 11 2 1 1 -3 -3 -8z m49 -6 c8 -8 18 -25
21 -38 4 -12 18 -34 32 -49 25 -26 25 -26 5 -37 -30 -16 -34 -14 -21 10 9 18
7 25 -9 42 -18 17 -23 18 -36 7 -11 -8 -16 -9 -16 -1 0 6 5 11 10 11 16 0 12
40 -5 46 -16 7 -21 24 -6 24 5 0 16 -7 25 -15z m115 -28 c-22 -17 -24 -18 -27
-3 -2 10 -1 24 2 32 5 12 10 13 28 3 l22 -12 -25 -20z m510 15 c-12 -2 -26 1
-33 8 -8 8 -7 10 5 5 10 -4 20 -1 24 5 6 9 10 9 16 -1 6 -10 2 -15 -12 -17z
m346 18 c-3 -5 -12 -10 -20 -10 -8 0 -17 5 -20 10 -4 6 5 10 20 10 15 0 24 -4
20 -10z m69 -19 c11 -9 16 -10 12 -3 -4 6 -3 12 2 12 18 0 21 -13 7 -40 -8
-15 -12 -30 -9 -33 3 -3 -4 -8 -16 -12 -17 -5 -28 -1 -45 17 -19 21 -24 55 -6
43 5 -2 7 6 6 20 -3 26 14 25 49 -4z m329 -18 c-8 -20 -23 -4 -23 25 0 24 1
25 14 7 8 -11 12 -25 9 -32z m321 9 c0 -12 5 -23 13 -26 9 -4 13 5 13 32 1 30
3 34 11 20 5 -10 19 -18 29 -18 11 0 17 -5 15 -12 -3 -7 0 -20 5 -28 9 -13 11
-13 19 0 6 9 6 19 -1 27 -13 16 -3 17 25 2 28 -15 37 -28 37 -56 0 -17 -4 -21
-17 -16 -12 5 -14 3 -7 -8 4 -8 7 -22 6 -31 -2 -10 2 -18 8 -18 6 0 8 5 5 10
-3 6 -2 10 4 10 13 0 19 -23 25 -91 3 -31 7 -62 10 -70 2 -8 7 -27 11 -44 l6
-30 -21 33 c-11 18 -20 38 -20 45 0 7 -20 37 -45 67 -25 30 -45 58 -45 61 0 4
-9 5 -20 2 -31 -8 -70 5 -70 25 0 9 -11 30 -25 45 -14 15 -23 27 -19 27 5 0
25 -19 46 -42 39 -43 54 -39 46 14 -2 18 -9 23 -30 23 -16 -1 -28 3 -28 7 0 4
-9 8 -19 8 -15 0 -19 7 -19 34 0 32 2 33 27 26 18 -5 26 -13 25 -28z m550 24
c-3 -8 2 -16 13 -19 14 -4 14 -5 -4 -6 -22 -1 -31 18 -16 32 10 11 13 8 7 -7z
m-2014 -1 c0 -7 -30 -13 -34 -7 -3 4 4 9 15 9 10 1 19 0 19 -2z m166 -17 c40
-30 44 -38 40 -73 -2 -16 -4 -36 -5 -44 -1 -11 -4 -11 -18 0 -15 12 -16 12
-11 -2 5 -13 2 -16 -14 -11 -15 3 -16 7 -7 13 8 4 10 11 6 15 -4 4 -13 2 -19
-4 -17 -17 -48 -15 -48 3 0 9 6 12 17 8 13 -5 15 -2 11 15 -4 12 -3 20 2 17
10 -6 20 19 20 52 0 22 -3 25 -30 21 -16 -3 -30 -1 -30 4 0 17 58 7 86 -14z
m523 0 c1 8 6 10 14 5 6 -4 21 -7 32 -6 11 2 14 0 7 -3 -6 -3 -10 -10 -6 -15
3 -5 -1 -9 -10 -9 -8 0 -16 6 -19 13 -3 9 -7 9 -19 0 -19 -16 -27 -8 -20 20 5
20 6 20 13 1 4 -10 8 -13 8 -6z m301 12 c0 -5 -5 -10 -11 -10 -5 0 -7 5 -4 10
3 6 8 10 11 10 2 0 4 -4 4 -10z m-1346 -11 c-2 -4 9 -10 26 -14 16 -4 30 -10
30 -14 0 -4 10 -13 23 -19 l22 -11 -24 0 c-18 -1 -21 -4 -13 -13 6 -7 10 -17
10 -23 0 -5 9 -12 19 -16 10 -4 -5 -6 -33 -5 -51 3 -112 25 -70 26 12 0 16 5
12 15 -3 8 -2 15 3 15 16 0 21 -13 10 -27 -9 -9 -8 -13 0 -13 6 0 11 5 11 11
0 8 6 7 18 -2 15 -13 16 -12 3 4 -7 9 -10 17 -5 18 5 0 -2 5 -16 10 -20 8 -22
12 -10 19 12 8 10 10 -7 10 -14 0 -23 6 -23 15 0 8 -5 15 -11 15 -5 0 -7 -6
-3 -12 5 -9 2 -9 -9 1 -23 19 -22 22 12 19 16 -1 28 -5 25 -9z m-1007 -13 c15
5 15 4 3 -5 -22 -15 -47 -13 -54 4 -4 13 -2 13 14 5 10 -5 27 -7 37 -4z m673
-30 c0 -6 -7 -1 -15 10 -8 10 -15 23 -15 28 0 6 7 1 15 -10 8 -10 15 -23 15
-28z m87 22 c-3 -8 -6 -5 -6 6 -1 11 2 17 5 13 3 -3 4 -12 1 -19z m177 9 c3 3
6 1 6 -6 0 -7 5 -9 13 -5 6 4 9 3 4 -1 -4 -5 -16 -9 -27 -10 -11 -1 -18 1 -15
3 3 3 -3 11 -13 19 -15 13 -15 13 4 4 12 -6 24 -7 28 -4z m434 -12 c-3 -3 -9
2 -12 12 -6 14 -5 15 5 6 7 -7 10 -15 7 -18z m398 11 c1 0 5 -12 8 -26 5 -17
4 -21 -2 -11 -8 11 -12 10 -21 -8 -7 -11 -15 -21 -19 -21 -7 0 -42 63 -42 76
0 4 71 -5 76 -10z m698 -25 c-5 -6 -34 20 -34 30 0 5 8 1 18 -8 10 -10 17 -20
16 -22z m-1022 7 c-7 -7 -12 -8 -12 -2 0 6 3 14 7 17 3 4 9 5 12 2 2 -3 -1
-11 -7 -17z m978 -30 c0 -10 -6 -18 -13 -18 -9 0 -13 12 -13 35 1 31 3 33 14
18 6 -9 12 -25 12 -35z m-562 29 c14 6 15 5 2 -9 -15 -16 -31 -7 -29 17 0 6 3
5 5 -2 3 -7 13 -9 22 -6z m52 -39 c0 -10 5 -18 12 -18 6 0 9 -2 6 -5 -12 -12
-36 8 -33 26 2 10 0 19 -4 19 -4 0 -8 7 -8 16 0 14 2 14 14 -2 7 -10 13 -26
13 -36z m645 42 c3 -5 12 -7 20 -4 8 4 22 -9 37 -35 13 -23 30 -41 38 -41 25
-1 50 -26 59 -58 9 -29 8 -29 -18 -23 -16 5 -32 20 -43 43 -18 38 -32 46 -85
50 -36 2 -39 8 -20 38 10 17 9 22 -3 30 -9 6 -10 10 -3 10 6 0 14 -4 18 -10z
m163 -30 c6 0 14 -11 18 -24 3 -14 17 -29 32 -35 15 -6 39 -20 53 -32 14 -11
40 -21 57 -22 22 -2 41 -14 71 -49 23 -25 41 -52 41 -60 0 -8 9 -33 20 -56 22
-45 25 -56 11 -48 -5 4 -22 38 -37 77 -20 55 -29 68 -36 56 -6 -11 -4 -26 5
-44 8 -16 12 -34 9 -42 -3 -9 0 -11 8 -6 9 5 11 4 6 -3 -4 -7 -3 -12 2 -12 6
0 13 -7 16 -16 4 -10 2 -13 -6 -8 -7 5 -9 2 -5 -9 4 -11 2 -14 -9 -10 -10 4
-12 9 -4 18 7 8 4 17 -10 30 -19 18 -20 17 -20 -6 1 -27 59 -141 75 -146 6 -2
18 9 27 24 13 21 18 23 18 11 0 -10 5 -18 11 -18 7 0 10 -12 7 -30 -2 -16 -1
-31 4 -32 5 -2 9 -18 11 -36 1 -17 5 -32 8 -32 3 0 11 -24 19 -52 19 -73 21
-88 12 -88 -16 0 -11 -51 8 -85 21 -38 26 -75 10 -75 -5 0 -11 8 -11 18 -1 16
-2 16 -6 0 -2 -10 -12 -18 -22 -18 -9 0 -17 8 -18 18 -1 20 -21 119 -29 146
-5 16 -2 17 28 12 29 -6 31 -5 16 7 -20 16 -25 32 -6 21 8 -5 9 2 4 26 -3 19
-11 37 -17 41 -6 3 -11 10 -10 15 0 5 -9 12 -20 16 -10 4 -19 3 -19 -2 0 -6
10 -10 21 -10 18 0 19 -3 9 -15 -11 -13 -14 -13 -27 0 -17 18 -29 19 -38 5 -9
-14 -35 7 -35 26 0 8 -4 14 -10 14 -21 0 -9 -27 25 -57 19 -17 35 -40 36 -50
1 -29 7 -71 14 -92 3 -10 -1 -24 -10 -31 -21 -18 -19 -33 4 -21 25 14 41 -5
34 -41 -6 -33 -36 -37 -66 -10 -20 16 -20 16 -13 -2 6 -18 2 -18 -55 -12 -34
3 -90 6 -125 6 -70 0 -62 -7 -79 75 -4 18 -1 25 11 25 13 0 12 5 -6 28 -16 19
-31 27 -53 27 -31 0 -32 1 -33 46 0 26 -4 55 -9 65 -13 32 -14 62 -2 79 11 14
14 14 34 -4 21 -20 21 -20 35 -1 12 18 15 19 44 5 30 -16 69 -67 57 -78 -7 -7
52 -59 79 -69 32 -13 19 -36 -36 -66 -51 -27 -55 -28 -59 -11 -3 12 0 19 8 19
8 0 16 4 19 8 6 10 -25 9 -42 -2 -6 -4 -12 -12 -12 -17 0 -6 4 -8 9 -5 5 3 12
-16 16 -42 9 -63 24 -81 42 -50 l14 23 -4 -22 c-4 -16 0 -23 10 -23 9 0 13 6
9 15 -6 17 5 20 21 4 7 -7 12 -4 16 10 6 25 -6 35 -30 23 -10 -5 -24 -7 -30
-5 -7 3 -13 -2 -13 -11 0 -9 -3 -16 -7 -16 -5 0 -8 14 -8 30 0 17 3 31 8 31
17 3 24 6 56 23 34 18 35 18 52 -3 9 -11 21 -21 26 -21 4 0 17 -15 28 -33 l20
-32 3 39 c2 22 -2 42 -8 46 -7 4 -9 19 -5 36 4 17 3 24 -2 17 -11 -16 -38 70
-29 93 4 12 2 15 -9 11 -8 -4 -28 -2 -44 4 -21 7 -36 7 -50 0 -13 -7 -22 -8
-26 -1 -3 5 -1 10 6 10 6 0 3 8 -8 18 -10 9 -13 13 -6 8 16 -10 18 15 2 31 -7
7 4 14 36 23 25 7 48 16 50 21 7 11 -57 1 -69 -11 -12 -12 -29 -13 -22 -1 3 4
-6 6 -19 3 -38 -7 -30 6 14 24 48 19 65 47 23 38 -15 -3 -37 -10 -49 -16 -17
-8 -25 -7 -41 8 -11 11 -21 28 -24 39 -2 12 -13 21 -28 23 -14 2 -30 8 -37 13
-7 7 -14 6 -18 -1 -4 -7 -12 -7 -26 0 -11 6 -19 7 -19 1 0 -5 7 -12 16 -15 13
-5 14 -9 4 -21 -8 -10 -31 -15 -66 -15 -52 0 -53 -1 -36 -18 11 -12 21 -16 29
-10 7 5 14 5 17 -1 4 -6 -2 -16 -12 -22 -12 -7 -17 -19 -14 -31 5 -22 -6 -23
-33 -2 l-20 15 20 16 c19 15 19 15 -4 8 -17 -5 -22 -4 -16 5 5 8 3 11 -6 8 -8
-3 -12 -14 -10 -24 3 -18 2 -18 -15 -3 -11 9 -24 14 -31 12 -15 -5 -25 11 -17
31 5 13 9 12 27 -5 l22 -20 3 24 c3 21 10 25 47 30 25 4 59 4 77 0 32 -6 33
-6 16 14 -10 11 -19 35 -19 54 -2 33 -2 34 -6 4 -5 -36 -18 -51 -28 -34 -5 8
-4 10 3 5 7 -4 12 -3 12 3 0 5 -4 13 -10 16 -5 3 -10 11 -10 16 0 6 4 8 9 5 5
-4 7 3 4 14 -7 28 -23 25 -23 -4 0 -19 -7 -26 -30 -31 -16 -4 -30 -11 -30 -16
0 -5 -5 -9 -11 -9 -5 0 -7 4 -4 10 3 6 -1 7 -9 4 -9 -3 -16 -10 -16 -16 0 -5
5 -6 10 -3 6 3 10 1 10 -4 0 -16 -20 -13 -26 4 -4 8 -10 13 -14 10 -9 -6 -50
42 -50 57 0 5 6 8 13 6 6 -3 12 -11 12 -19 0 -13 13 -29 26 -29 3 0 4 13 1 30
-2 16 -8 28 -12 25 -5 -3 -11 -1 -15 5 -9 14 18 13 33 -2 9 -9 13 -7 18 5 4
13 19 17 54 17 27 0 52 -4 55 -10 3 -5 16 -10 28 -10 12 0 38 -10 57 -21 19
-12 48 -21 64 -21 16 0 38 -4 48 -9 24 -13 87 -21 109 -14 11 4 16 12 12 21
-5 13 -7 13 -14 2 -7 -10 -9 -10 -9 0 0 6 -5 12 -11 12 -5 0 -8 -4 -4 -10 3
-5 -9 -4 -27 2 -33 11 -57 34 -57 53 -1 6 8 -1 19 -15 10 -14 21 -22 25 -19 3
4 -12 22 -34 42 -22 20 -47 50 -56 67 -14 27 -14 30 0 30 9 0 13 -5 9 -11 -4
-8 -1 -8 12 -2 11 5 26 9 34 8 8 -1 21 3 29 9 11 9 9 12 -10 17 l-24 7 24 1
c17 1 21 5 17 17 -3 9 -6 20 -6 25 0 6 -5 7 -10 4 -6 -4 -7 -12 -3 -18 4 -7 1
-7 -9 1 -9 8 -14 20 -11 28 3 10 -2 14 -18 15 -13 0 -33 4 -44 9 -14 7 -8 8
20 4 l40 -6 -22 21 c-12 11 -31 21 -43 21 -11 0 -20 6 -20 13 0 25 13 27 35 7
12 -11 27 -20 33 -20z m709 34 c-3 -3 -12 -4 -19 -1 -8 3 -5 6 6 6 11 1 17 -2
13 -5z m-1707 -64 c5 0 10 -4 10 -9 0 -5 -9 -7 -20 -4 -11 3 -20 9 -20 14 0 5
-4 9 -10 9 -18 0 -10 -17 13 -28 16 -8 17 -11 6 -11 -21 -1 -39 20 -45 52 -6
38 27 41 43 5 7 -16 17 -28 23 -28z m361 48 c8 -7 21 -20 28 -30 11 -15 7 -16
-33 -16 -45 0 -66 10 -46 23 5 3 10 1 10 -4 0 -6 5 -11 11 -11 8 0 8 5 -1 15
-9 10 -16 12 -25 5 -7 -6 -15 -6 -22 1 -13 13 -36 2 -28 -12 4 -5 -2 -6 -11
-2 -13 5 -14 8 -5 11 11 4 11 6 0 13 -9 6 3 8 34 7 26 -1 50 2 54 5 9 10 17 9
34 -5z m209 3 c0 -6 -4 -12 -8 -15 -5 -3 -9 1 -9 9 0 8 4 15 9 15 4 0 8 -4 8
-9z m242 -9 c-7 -2 -12 -16 -12 -31 0 -19 8 -32 29 -44 15 -9 31 -14 35 -10 8
9 46 -27 46 -45 0 -8 14 -32 31 -53 18 -23 29 -46 25 -55 -9 -23 -28 -6 -20
18 4 14 2 18 -5 14 -6 -4 -11 0 -11 10 0 12 -6 15 -22 10 -13 -3 -32 -6 -43
-6 -19 -1 -19 -1 -1 -15 12 -9 17 -22 13 -35 -6 -22 3 -26 21 -8 9 9 13 7 18
-6 10 -26 0 -28 -52 -13 -30 8 -50 21 -52 31 -2 9 1 16 7 16 6 0 11 -7 11 -15
0 -8 4 -15 9 -15 20 0 20 18 1 38 -24 25 -26 36 -5 29 8 -4 17 -2 20 3 4 6 16
10 28 10 15 0 18 3 10 11 -8 8 -21 7 -47 -2 -23 -8 -39 -10 -45 -4 -13 13 -21
165 -9 165 5 0 6 4 3 10 -4 6 1 7 11 3 11 -4 13 -8 6 -11z m-1775 -39 c-3 -10
-5 -2 -5 17 0 19 2 27 5 18 2 -10 2 -26 0 -35z m628 16 c18 -35 15 -48 -5 -23
-12 14 -22 54 -14 54 2 0 11 -14 19 -31z m25 21 c0 -5 -2 -10 -4 -10 -3 0 -8
5 -11 10 -3 6 -1 10 4 10 6 0 11 -4 11 -10z m970 -7 c0 -5 -4 -14 -9 -21 -7
-11 -9 -11 -14 1 -3 8 -3 18 0 21 9 8 23 7 23 -1z m-1703 -25 c-3 -8 -6 -5 -6
6 -1 11 2 17 5 13 3 -3 4 -12 1 -19z m274 -5 c7 -18 6 -30 -1 -37 -6 -6 -10
-6 -11 0 0 5 -2 21 -4 37 -5 34 3 35 16 0z m678 0 c8 -16 8 -24 -1 -29 -6 -4
-8 -3 -4 4 3 6 0 17 -8 25 -8 8 -12 17 -9 21 7 7 7 7 22 -21z m697 -48 c22
-14 26 -43 3 -30 -5 4 -9 -1 -9 -9 0 -8 8 -20 18 -25 15 -9 15 -10 1 -11 -19
0 -29 20 -29 56 0 17 -4 23 -12 18 -7 -4 -10 -4 -6 1 4 4 3 16 -2 26 -6 9 -7
26 -2 36 5 14 8 11 10 -14 2 -20 12 -37 28 -48z m531 44 c2 -12 -1 -18 -7 -14
-5 3 -10 16 -10 27 0 26 13 16 17 -13z m-2309 -15 c-3 -14 -5 -12 -10 9 -3 19
-2 25 4 19 6 -6 8 -18 6 -28z m882 30 c0 -8 -19 -13 -24 -6 -3 5 1 9 9 9 8 0
15 -2 15 -3z m419 3 c-2 -1 -13 -9 -24 -17 -19 -14 -19 -14 -6 3 7 9 18 17 24
17 6 0 8 -1 6 -3z m-714 -27 c16 -18 16 -20 2 -20 -10 0 -16 6 -14 13 1 6 -4
11 -10 10 -7 -2 -13 2 -13 7 0 16 15 12 35 -10z m1341 10 c8 0 14 -9 14 -20 0
-25 -2 -25 -40 -2 -29 18 -31 38 -2 27 7 -3 20 -5 28 -5z m-871 -10 c3 -5 1
-10 -4 -10 -6 0 -11 5 -11 10 0 6 2 10 4 10 3 0 8 -4 11 -10z m614 -30 c54
-56 80 -171 35 -153 -17 6 -18 27 -3 52 9 13 9 23 0 37 -10 17 -10 16 -5 -8 6
-27 -8 -39 -20 -19 -3 5 -15 7 -26 4 -17 -4 -20 0 -20 25 0 30 22 48 42 35 6
-3 8 -1 5 4 -4 6 -16 13 -27 16 -11 3 -18 1 -14 -4 3 -5 0 -9 -5 -9 -6 0 -11
14 -11 30 0 17 2 30 5 30 3 0 22 -18 44 -40z m-932 24 c-3 -3 -12 -4 -19 -1
-8 3 -5 6 6 6 11 1 17 -2 13 -5z m732 -11 c3 -2 -1 -9 -9 -16 -10 -9 -11 -9
-6 1 5 8 -2 12 -23 12 -16 0 -32 4 -36 9 -5 9 64 3 74 -6z m-831 -20 c-10 -2
-28 -2 -40 0 -13 2 -5 4 17 4 22 1 32 -1 23 -4z m496 1 c12 -5 13 -10 5 -25
-7 -14 -7 -19 2 -17 6 2 13 -2 16 -8 2 -7 -6 -11 -21 -10 -13 0 -22 4 -20 8 2
3 -3 14 -13 23 -14 14 -14 18 -2 26 17 11 14 10 33 3z m186 -14 c0 -11 -7 -20
-15 -20 -13 0 -13 3 -3 20 7 11 14 20 15 20 2 0 3 -9 3 -20z m264 1 c3 -4 -11
-5 -30 -3 -19 2 -34 7 -34 11 0 9 59 1 64 -8z m-1746 -3 c-7 -19 -38 -22 -38
-4 0 10 9 16 21 16 12 0 19 -5 17 -12z m483 -9 c8 -16 8 -20 -1 -17 -6 2 -11
7 -10 12 1 5 -4 13 -12 17 -9 6 -9 9 -1 9 7 0 17 -10 24 -21z m903 6 c6 -16
-11 -20 -40 -8 -16 6 -16 7 2 14 28 11 31 11 38 -6z m703 -7 c-3 -8 -6 -5 -6
6 -1 11 2 17 5 13 3 -3 4 -12 1 -19z m-377 -13 c0 4 6 2 14 -5 8 -6 12 -18 10
-25 -4 -11 -12 -7 -30 12 -27 29 -32 42 -9 23 8 -7 15 -9 15 -5z m-455 -15
c-3 -6 3 -14 15 -18 19 -7 20 -10 6 -21 -8 -7 -20 -10 -26 -6 -13 8 -13 55 1
55 5 0 7 -5 4 -10z m140 -10 c-4 -6 -10 -8 -15 -5 -5 3 -13 -3 -19 -12 -7 -14
-13 -15 -22 -6 -17 17 -2 33 32 33 18 0 28 -4 24 -10z m69 -4 c-3 -9 -13 -12
-27 -8 -21 6 -21 6 3 13 14 4 26 7 27 8 1 1 0 -5 -3 -13z m631 4 c3 -5 2 -10
-4 -10 -5 0 -13 5 -16 10 -3 6 -2 10 4 10 5 0 13 -4 16 -10z m-582 -7 c-7 -2
-19 -2 -25 0 -7 3 -2 5 12 5 14 0 19 -2 13 -5z m67 -2 c0 -5 8 -7 19 -4 29 7
33 -13 5 -26 -15 -6 -22 -16 -18 -23 4 -7 3 -8 -5 -4 -6 4 -9 11 -6 16 9 14
-6 39 -20 34 -7 -3 -16 -1 -20 5 -4 7 4 11 19 11 14 0 26 -4 26 -9z m500 -35
c-7 -7 -14 -6 -22 3 -11 11 -10 12 1 6 11 -6 13 -4 7 10 -5 15 -4 16 9 5 11
-9 13 -16 5 -24z m-419 7 c10 -12 11 -15 1 -9 -7 4 -20 2 -29 -6 -15 -12 -15
-11 -2 10 17 26 13 26 30 5z m66 -7 c0 -8 -6 -12 -14 -9 -7 3 -13 11 -13 19 0
7 6 11 13 8 8 -3 14 -11 14 -18z m403 1 c0 -6 -3 -7 -7 -4 -3 4 -12 2 -19 -4
-9 -8 -11 -5 -7 10 5 20 33 19 33 -2z m-1675 -8 c4 -6 17 -14 29 -19 16 -7 17
-9 4 -9 -9 -1 -23 6 -31 14 -8 8 -17 11 -21 8 -3 -4 -6 -1 -6 5 0 15 17 16 25
1z m845 -22 c0 -4 -6 -2 -14 5 -8 7 -12 17 -9 22 5 8 23 -12 23 -27z m80 22
c0 -6 -7 -9 -15 -5 -9 3 -15 0 -15 -8 0 -8 6 -17 13 -19 7 -3 5 -6 -5 -6 -27
-1 -11 -26 17 -27 20 -2 23 1 15 10 -5 7 -7 16 -3 19 12 13 23 7 23 -12 0 -28
17 -35 30 -14 11 17 11 17 6 1 -3 -10 -2 -18 3 -18 5 0 11 9 14 21 3 12 10 18
15 15 7 -4 6 -15 -1 -30 -10 -20 -17 -23 -57 -19 -25 2 -58 4 -75 6 -21 1 -31
8 -34 22 -3 16 -1 17 11 7 13 -10 15 -7 16 18 0 21 -4 30 -16 31 -11 1 -7 4 8
9 37 12 50 11 50 -1z m-825 -47 c-3 -3 2 -14 12 -24 20 -22 11 -24 -11 -2 -9
8 -16 30 -15 47 0 31 1 31 10 8 5 -13 7 -26 4 -29z m693 18 c-3 -16 -1 -30 4
-30 4 0 8 -9 8 -20 0 -11 -7 -20 -16 -20 -12 0 -14 9 -10 48 6 56 5 52 12 52
4 0 4 -13 2 -30z m579 8 c-3 -8 -6 -5 -6 6 -1 11 2 17 5 13 3 -3 4 -12 1 -19z
m-294 5 c-7 -2 -21 -2 -30 0 -10 3 -4 5 12 5 17 0 24 -2 18 -5z m63 -36 c1 -9
-7 -23 -18 -31 -14 -10 -16 -15 -6 -20 7 -3 2 -3 -12 1 -14 3 -31 13 -38 22
-12 14 -13 14 -7 -4 5 -16 4 -17 -6 -8 -10 10 -9 16 2 29 29 35 80 42 85 11z
m252 1 c8 -10 5 -13 -13 -13 -18 0 -21 3 -13 13 6 6 12 12 13 12 1 0 7 -6 13
-12z m-203 -6 c6 -4 15 -16 22 -28 10 -19 9 -21 -15 -17 -49 8 -55 12 -43 27
6 7 8 16 4 19 -9 9 20 8 32 -1z m693 -47 c-3 -3 -9 2 -12 12 -6 14 -5 15 5 6
7 -7 10 -15 7 -18z m-1677 -88 c-2 -78 1 -98 13 -103 8 -3 12 -12 9 -20 -3 -7
10 -27 29 -45 27 -25 28 -28 6 -15 -29 19 -44 8 -34 -22 5 -14 3 -13 -9 2 -13
17 -13 21 3 32 16 12 15 13 -5 14 -12 0 -25 5 -28 10 -4 6 -10 8 -14 5 -8 -4
-6 32 4 90 3 17 5 59 5 93 0 44 3 63 11 60 8 -3 11 -35 10 -101z m1460 26 c12
-14 12 -16 -1 -11 -8 3 -23 1 -32 -3 -23 -12 -33 7 -11 20 24 14 28 14 44 -6z
m-134 -25 c-3 -8 -6 -5 -6 6 -1 11 2 17 5 13 3 -3 4 -12 1 -19z m-1427 -25 c0
-8 -5 -13 -12 -11 -18 6 -21 25 -3 25 8 0 15 -7 15 -14z m1744 6 c37 -17 40
-46 7 -64 -27 -13 -30 -12 -60 18 -24 26 -28 36 -19 45 15 15 40 15 72 1z
m-1884 -44 c0 -12 -19 -12 -23 0 -4 9 -1 12 9 8 7 -3 14 -7 14 -8z m1805 5 c3
-5 1 -10 -4 -10 -6 0 -11 5 -11 10 0 6 2 10 4 10 3 0 8 -4 11 -10z m-42 -24
c6 -15 -17 -16 -30 -1 -4 4 -2 5 5 1 6 -4 12 -2 12 3 0 15 7 14 13 -3z m172
-6 c-3 -5 -14 -10 -23 -9 -14 0 -13 2 3 9 27 11 27 11 20 0z m-342 -17 c-3 -7
-8 -13 -12 -13 -4 0 -8 6 -8 13 0 8 6 14 13 14 7 0 10 -6 7 -14z m82 -11 c-24
-5 -67 7 -61 17 3 4 22 3 41 -3 21 -6 29 -12 20 -14z m-1151 -8 c3 -7 1 -16
-4 -19 -19 -12 -10 -41 18 -57 17 -11 21 -18 11 -18 -18 0 -42 25 -52 53 -4
11 -12 15 -19 11 -8 -5 -9 0 -6 14 5 17 2 22 -13 22 -13 0 -17 -5 -12 -17 6
-16 4 -16 -9 -5 -9 7 -31 15 -49 17 -63 8 -41 16 43 14 63 -1 88 -5 92 -15z
m116 12 c0 -8 -51 -13 -56 -5 -3 5 9 9 25 9 17 0 31 -2 31 -4z m53 -3 c-7 -2
-19 -2 -25 0 -7 3 -2 5 12 5 14 0 19 -2 13 -5z m84 -15 c10 -17 20 -188 11
-181 -5 2 -8 11 -8 19 0 9 -5 12 -12 8 -7 -5 -8 -3 -2 7 7 12 7 79 -1 87 -2 2
-14 -2 -27 -8 -22 -11 -22 -11 2 9 15 12 19 21 11 21 -11 0 -11 3 0 16 10 13
10 17 -2 25 -12 7 -11 9 3 9 9 0 20 -6 25 -12z m848 -18 c3 -5 -1 -10 -10 -10
-9 0 -13 5 -10 10 3 6 8 10 10 10 2 0 7 -4 10 -10z m-909 -21 c3 -5 1 -16 -4
-26 -8 -14 -12 -12 -26 14 -15 30 -15 31 4 26 11 -3 23 -9 26 -14z m-489 -5
c-3 -3 -12 -4 -19 -1 -8 3 -5 6 6 6 11 1 17 -2 13 -5z m261 -12 c5 -17 -13
-15 -27 2 -10 12 -9 14 5 12 10 -2 20 -8 22 -14z m63 1 c13 -16 12 -17 -3 -4
-10 7 -18 15 -18 17 0 8 8 3 21 -13z m1123 -8 c8 -8 17 -24 21 -34 3 -11 13
-22 21 -25 30 -11 5 -21 -60 -24 -51 -3 -65 0 -62 10 2 7 7 26 11 41 4 19 11
27 20 23 9 -3 12 0 8 10 -7 19 21 18 41 -1z m-1000 -24 c-4 -3 -9 0 -11 7 -3
6 -10 9 -15 6 -7 -4 -8 -2 -4 5 6 9 11 9 22 0 8 -6 12 -15 8 -18z m-479 10 c3
-5 1 -12 -5 -16 -5 -3 -10 1 -10 9 0 18 6 21 15 7z m48 -12 c5 -3 0 -9 -11
-11 -15 -4 -18 -1 -14 14 2 10 7 15 11 11 3 -4 10 -11 14 -14z m385 9 c-2 -7
3 -12 10 -10 8 1 11 -2 7 -8 -5 -8 -11 -8 -21 1 -7 6 -11 15 -8 20 8 13 14 11
12 -3z m954 -5 c-5 -10 -7 -25 -4 -33 4 -11 2 -11 -11 2 -22 21 -21 35 1 41 9
3 18 5 20 6 1 0 -1 -7 -6 -16z m638 -3 c6 -11 7 -20 2 -20 -6 0 -12 9 -15 20
-3 11 -3 20 -1 20 2 0 8 -9 14 -20z m-1870 0 c0 -5 -2 -10 -4 -10 -3 0 -8 5
-11 10 -3 6 -1 10 4 10 6 0 11 -4 11 -10z m1472 -9 c-6 -3 -12 -27 -14 -51
l-3 -45 -47 -3 c-44 -3 -48 -1 -47 20 0 21 1 21 8 4 7 -17 8 -17 14 -3 3 8 4
27 1 40 -3 22 1 27 38 39 41 13 72 13 50 -1z m288 -1 c21 -21 26 -40 11 -40
-17 0 -91 47 -84 53 13 14 54 6 73 -13z m-1508 -52 c-30 -12 -34 -9 -28 18 4
16 3 23 -3 19 -7 -3 -8 0 -5 9 5 12 11 9 29 -12 21 -24 22 -28 7 -34z m-336
-10 c53 2 62 0 66 -16 3 -11 1 -27 -4 -36 -13 -23 13 -21 46 5 l26 20 -1 -38
c-1 -22 -4 -29 -6 -16 -2 12 -10 20 -16 17 -13 -5 -16 -72 -4 -91 5 -8 1 -8
-18 0 -14 7 -25 17 -25 22 0 6 -10 11 -21 12 -12 1 -30 10 -41 20 -11 10 -22
17 -24 16 -2 -1 -11 0 -20 4 -15 5 -15 7 0 15 16 9 22 29 9 27 -22 -4 -31 5
-41 40 -15 49 -14 65 1 26 12 -29 13 -30 73 -27z m1961 20 c-3 -8 -6 -5 -6 6
-1 11 2 17 5 13 3 -3 4 -12 1 -19z m-2297 2 c0 -5 -2 -10 -4 -10 -3 0 -8 5
-11 10 -3 6 -1 10 4 10 6 0 11 -4 11 -10z m141 -13 c-10 -9 -11 -8 -5 6 3 10
9 15 12 12 3 -3 0 -11 -7 -18z m216 17 c-3 -3 -12 -4 -19 -1 -8 3 -5 6 6 6 11
1 17 -2 13 -5z m250 -9 c9 -10 6 -12 -13 -12 -13 0 -24 5 -24 12 0 6 6 12 13
12 7 0 18 -6 24 -12z m-522 -23 c-3 -3 -11 0 -18 7 -9 10 -8 11 6 5 10 -3 15
-9 12 -12z m405 12 c0 -8 -19 -13 -24 -6 -3 5 1 9 9 9 8 0 15 -2 15 -3z m310
-20 c0 -8 -4 -14 -10 -14 -5 0 -9 -9 -7 -19 1 -11 -2 -20 -8 -19 -5 0 -9 5 -7
10 1 6 -3 16 -9 24 -9 11 -9 17 1 28 13 17 40 10 40 -10z m-365 -22 c-8 -8
-25 10 -25 26 0 13 2 13 14 -4 8 -10 13 -21 11 -22z m1779 16 c9 -35 7 -41 -8
-29 -19 16 -27 51 -11 51 7 0 15 -10 19 -22z m-455 -5 c0 -10 -3 -13 -5 -6 -3
7 -11 10 -19 7 -7 -3 -16 -1 -20 5 -4 7 4 11 19 11 18 0 26 -5 25 -17z m-1584
-2 c3 -5 1 -12 -5 -16 -5 -3 -10 1 -10 9 0 18 6 21 15 7z m377 2 c-10 -4 -10
-8 0 -21 9 -12 5 -11 -12 3 -14 11 -27 21 -29 22 -2 2 9 3 25 2 16 0 23 -3 16
-6z m30 -18 c3 -13 1 -22 -3 -19 -9 5 -13 44 -5 44 2 0 6 -11 8 -25z m52 8
c-8 -9 -12 -18 -9 -22 4 -3 15 4 25 17 19 23 19 23 30 2 9 -18 8 -20 -15 -21
-14 -1 -30 -2 -36 -3 -7 -1 -15 9 -20 20 -6 18 -4 22 16 22 21 0 22 -2 9 -15z
m316 7 c0 -5 -2 -10 -4 -10 -3 0 -8 5 -11 10 -3 6 -1 10 4 10 6 0 11 -4 11
-10z m120 -10 c0 -5 -2 -10 -4 -10 -3 0 -8 5 -11 10 -3 6 -1 10 4 10 6 0 11
-4 11 -10z m93 3 c-7 -2 -13 -11 -13 -18 0 -8 -8 -19 -19 -24 -15 -9 -18 -7
-16 12 1 12 3 24 4 27 0 3 13 6 29 7 15 1 21 -1 15 -4z m90 0 c-7 -2 -19 -2
-25 0 -7 3 -2 5 12 5 14 0 19 -2 13 -5z m150 0 c-23 -2 -64 -2 -90 0 -26 2 -7
3 42 3 50 0 71 -1 48 -3z m564 -8 c-4 -8 -2 -17 4 -21 5 -3 6 -11 2 -17 -5 -7
-8 -31 -7 -54 0 -24 -2 -43 -6 -43 -6 0 -10 16 -11 52 0 10 -5 20 -10 23 -5 4
-7 11 -4 16 4 5 2 9 -4 9 -5 0 -13 -9 -16 -21 -4 -11 -9 -19 -11 -16 -2 2 3
20 11 40 11 27 19 35 32 30 11 -4 14 -3 9 5 -4 7 -2 12 4 12 7 0 10 -7 7 -15z
m-1062 -5 c3 -6 -1 -7 -9 -4 -18 7 -21 14 -7 14 6 0 13 -4 16 -10z m1502 -27
c-3 -10 -5 -4 -5 12 0 17 2 24 5 18 2 -7 2 -21 0 -30z m-2192 18 c-3 -5 6 -22
20 -38 l26 -28 -6 25 c-5 20 -4 22 5 8 13 -21 2 -56 -12 -36 -7 10 -11 10 -15
1 -2 -7 -9 -13 -14 -13 -6 0 -7 5 -4 10 3 6 1 10 -4 10 -6 0 -11 5 -11 11 0 8
5 8 15 -1 9 -8 15 -9 15 -2 0 6 -4 14 -10 17 -5 3 -15 15 -20 26 -9 15 -7 19
5 19 9 0 14 -4 10 -9z m1612 -11 c9 -10 12 -11 13 -2 0 6 8 12 18 11 9 0 12
-3 6 -5 -6 -2 -8 -18 -6 -34 3 -24 1 -29 -12 -24 -8 3 -14 10 -13 14 1 5 -14
20 -33 35 -32 24 -33 25 -10 23 14 -2 30 -10 37 -18z m-741 1 c-4 -5 0 -12 6
-14 8 -3 6 -6 -4 -6 -18 -1 -24 10 -11 22 9 10 15 8 9 -2z m-526 -15 c0 -8 6
-17 13 -19 9 -4 9 -6 0 -6 -7 -1 -17 8 -23 19 -7 14 -7 20 0 20 5 0 10 -6 10
-14z m180 0 c25 -8 36 -15 25 -15 -12 -1 -26 -6 -33 -13 -9 -9 -15 -9 -24 0
-9 9 -9 12 2 12 16 0 5 13 -15 16 -8 1 -11 -4 -8 -12 3 -8 0 -14 -6 -14 -19 0
-12 -18 9 -25 11 -3 20 -14 20 -23 -1 -15 -2 -15 -11 1 -6 9 -15 15 -20 11
-13 -8 -63 46 -52 56 4 5 19 10 33 13 14 2 27 5 30 5 3 1 25 -5 50 -12z m800
-2 c0 -2 -7 -4 -15 -4 -8 0 -15 4 -15 10 0 5 7 7 15 4 8 -4 15 -8 15 -10z m95
6 c3 -5 2 -10 -4 -10 -5 0 -13 5 -16 10 -3 6 -2 10 4 10 5 0 13 -4 16 -10z
m-312 -7 c-7 -2 -19 -2 -25 0 -7 3 -2 5 12 5 14 0 19 -2 13 -5z m419 -12 c-3
-9 -9 -21 -13 -27 -5 -6 -6 -14 -2 -17 3 -4 2 -7 -4 -7 -16 0 -60 39 -45 40 6
0 12 -4 12 -10 0 -5 4 -10 10 -10 5 0 7 7 4 15 -7 18 12 20 20 3 3 -7 4 -4 1
8 -4 14 0 21 9 21 9 0 12 -7 8 -16z m-794 -7 c31 -21 28 -29 -15 -47 l-38 -15
32 0 c21 1 30 5 26 12 -4 6 0 5 9 -2 15 -12 17 -9 20 25 l3 38 5 -41 5 -41
-65 -2 c-67 -1 -103 10 -80 24 7 4 16 2 20 -5 6 -9 10 -7 15 9 3 11 11 21 16
21 6 0 7 -4 4 -10 -4 -6 1 -7 11 -3 15 6 15 7 -1 16 -11 6 -21 5 -28 -2 -17
-17 -31 -13 -17 4 7 8 21 15 32 15 10 0 16 5 13 10 -9 15 8 12 33 -6z m269 -6
c-4 -15 1 -30 15 -45 l21 -23 -34 0 c-32 0 -34 2 -35 38 0 20 1 31 4 24 2 -6
8 -10 13 -6 16 9 10 22 -13 27 -19 4 -18 5 6 6 25 1 28 -2 23 -21z m-181 -12
c1 -14 -4 -27 -12 -30 -17 -6 -18 8 -4 35 14 24 15 24 16 -5z m38 3 c-2 -5 0
-18 7 -30 6 -12 7 -19 1 -15 -6 3 -15 19 -20 35 -9 25 -8 29 4 24 7 -3 11 -9
8 -14z m219 8 c3 -8 1 -20 -4 -28 -6 -10 -9 -7 -9 14 0 29 5 35 13 14z m-804
-18 c-14 -8 -29 -3 -29 11 0 4 9 6 21 3 15 -4 17 -8 8 -14z m280 12 c10 -7 11
-13 2 -30 -7 -12 -16 -19 -22 -15 -6 4 -6 11 2 21 10 12 10 16 -2 24 -8 5 -9
9 -4 9 6 0 16 -4 24 -9z m-629 -67 c0 -2 -7 -1 -15 2 -9 4 -15 19 -15 38 l1
31 14 -34 c8 -18 15 -35 15 -37z m1029 40 c3 -16 1 -16 -12 -5 -9 7 -22 9 -29
5 -9 -6 -9 -3 1 9 17 21 35 17 40 -9z m614 3 c4 3 7 1 7 -5 0 -7 -12 -12 -27
-12 -20 0 -24 3 -14 9 7 5 10 15 7 22 -4 8 -1 6 7 -3 8 -10 17 -15 20 -11z
m-1120 -34 c-7 -3 -18 1 -25 7 -7 6 -22 17 -33 26 -11 8 0 5 25 -7 25 -12 40
-24 33 -26z m997 11 c0 -11 -15 -14 -57 -13 -56 2 -56 2 -18 9 22 4 36 8 32 9
-5 0 -6 5 -3 10 9 13 46 1 46 -15z m-1167 9 c-7 -2 -19 -2 -25 0 -7 3 -2 5 12
5 14 0 19 -2 13 -5z m1207 -8 c10 -13 9 -15 -9 -15 -12 0 -21 6 -21 15 0 8 4
15 9 15 5 0 14 -7 21 -15z m-1685 -5 c3 -6 -1 -7 -9 -4 -18 7 -21 14 -7 14 6
0 13 -4 16 -10z m1032 -6 c-3 -3 -12 -4 -19 -1 -8 3 -5 6 6 6 11 1 17 -2 13
-5z m116 -1 c-7 -2 -21 -2 -30 0 -10 3 -4 5 12 5 17 0 24 -2 18 -5z m685 0
c-10 -2 -26 -2 -35 0 -10 3 -2 5 17 5 19 0 27 -2 18 -5z m-2185 -30 c-7 -2
-19 -2 -25 0 -7 3 -2 5 12 5 14 0 19 -2 13 -5z m477 3 c0 -3 -4 -8 -10 -11 -5
-3 -10 -1 -10 4 0 6 5 11 10 11 6 0 10 -2 10 -4z m1042 -18 c4 -19 0 -23 -23
-23 -17 0 -25 4 -22 13 3 6 -2 12 -11 12 -10 0 -13 -6 -10 -15 4 -8 1 -15 -5
-15 -6 0 -14 0 -18 0 -4 0 -8 11 -10 25 -4 24 -1 25 45 25 44 0 50 -3 54 -22z
m252 7 c3 -8 1 -15 -4 -15 -6 0 -10 5 -10 11 0 5 -4 8 -9 4 -5 -3 -12 -1 -16
5 -3 5 3 10 13 10 11 0 22 -7 26 -15z m226 3 c0 -7 -4 -19 -9 -27 -11 -17 -34
-4 -27 14 3 8 -3 16 -12 18 -9 3 -2 5 16 6 20 1 32 -4 32 -11z m133 -3 c-3 -9
-8 -14 -10 -11 -3 3 -2 9 2 15 9 16 15 13 8 -4z m64 -22 c-3 -10 -5 -4 -5 12
0 17 2 24 5 18 2 -7 2 -21 0 -30z m135 7 c5 -13 6 -21 2 -17 -4 3 -16 1 -27
-5 -17 -9 -19 -8 -14 7 4 9 7 23 7 32 0 22 22 11 32 -17z m39 17 c-6 -8 -8
-17 -4 -20 3 -4 1 -7 -5 -7 -20 0 -23 19 -5 29 24 14 27 13 14 -2z m233 -12
c19 -29 10 -31 -39 -11 -42 18 -45 36 -6 36 20 0 34 -8 45 -25z m82 -6 c0 -10
-6 -19 -14 -19 -7 0 -11 4 -8 9 3 5 -1 11 -9 14 -10 4 -12 1 -8 -11 6 -15 5
-15 -10 -3 -28 22 -21 37 16 33 24 -3 33 -9 33 -23z m-1816 6 c0 -8 -4 -15
-10 -15 -5 0 -7 7 -4 15 4 8 8 15 10 15 2 0 4 -7 4 -15z m410 11 c0 -2 -7 -7
-16 -10 -8 -3 -12 -2 -9 4 6 10 25 14 25 6z m420 0 c0 -3 -4 -8 -10 -11 -5 -3
-10 -1 -10 4 0 6 5 11 10 11 6 0 10 -2 10 -4z m357 -11 c0 -8 -4 -15 -9 -15
-4 0 -8 7 -8 15 0 8 4 15 8 15 5 0 9 -7 9 -15z m118 4 c11 -16 1 -19 -13 -3
-7 8 -8 14 -3 14 5 0 13 -5 16 -11z m263 -5 c28 -19 28 -34 1 -34 -12 0 -17 4
-14 11 4 6 -1 17 -11 24 -26 20 -4 19 24 -1z m290 -9 c-3 -3 -9 2 -12 12 -6
14 -5 15 5 6 7 -7 10 -15 7 -18z m98 -23 c-10 -10 -39 25 -31 38 5 8 12 5 22
-10 8 -12 12 -24 9 -28z m-2333 18 c3 -11 1 -20 -4 -20 -5 0 -9 9 -9 20 0 11
2 20 4 20 2 0 6 -9 9 -20z m860 -1 c4 -16 3 -18 -9 -8 -7 6 -11 15 -8 20 8 13
11 11 17 -12z m302 3 c-3 -3 -11 0 -18 7 -9 10 -8 11 6 5 10 -3 15 -9 12 -12z
m110 -5 c19 -4 19 -5 -1 -6 -12 0 -28 7 -35 17 -12 15 -12 16 1 6 8 -7 24 -14
35 -17z m641 -4 c-7 -7 -26 7 -26 19 0 6 6 6 15 -2 9 -7 13 -15 11 -17z
m-1102 1 c3 -8 2 -12 -4 -9 -6 3 -10 10 -10 16 0 14 7 11 14 -7z m417 -1 c13
-16 12 -17 -3 -4 -17 13 -22 21 -14 21 2 0 10 -8 17 -17z m774 7 c3 -6 -1 -7
-9 -4 -18 7 -21 14 -7 14 6 0 13 -4 16 -10z m-2470 -10 c3 -5 -3 -10 -15 -10
-12 0 -18 5 -15 10 3 6 10 10 15 10 5 0 12 -4 15 -10z m2548 -7 c-7 -2 -19 -2
-25 0 -7 3 -2 5 12 5 14 0 19 -2 13 -5z m-3116 -39 c-3 -3 -12 -4 -19 -1 -8 3
-5 6 6 6 11 1 17 -2 13 -5z m548 -13 c8 -25 31 -34 56 -21 31 17 22 -4 -11
-23 -16 -10 -30 -14 -30 -9 0 5 -11 7 -25 4 -22 -4 -25 -1 -25 25 0 44 23 60
35 24z m40 -3 c6 -4 2 -8 -7 -8 -10 0 -18 7 -18 17 0 9 3 12 8 7 4 -5 12 -12
17 -16z m435 12 c0 -5 -2 -10 -4 -10 -3 0 -8 5 -11 10 -3 6 -1 10 4 10 6 0 11
-4 11 -10z m813 3 c-7 -2 -19 -2 -25 0 -7 3 -2 5 12 5 14 0 19 -2 13 -5z m95
0 c-10 -2 -26 -2 -35 0 -10 3 -2 5 17 5 19 0 27 -2 18 -5z m666 -9 c6 -15 4
-15 -11 -3 -10 7 -20 15 -22 16 -2 2 3 3 11 3 9 0 19 -7 22 -16z m405 2 c10
-11 10 -20 0 -37 -9 -17 -9 -24 0 -27 6 -2 9 -8 5 -13 -3 -5 1 -9 9 -9 11 0
53 -68 45 -75 -2 -1 -12 -7 -23 -13 -16 -9 -17 -11 -3 -12 11 0 15 -6 11 -20
-6 -22 -18 -26 -28 -10 -3 6 -11 10 -16 10 -6 0 -7 -5 -3 -12 4 -7 3 -8 -4 -4
-13 8 -4 36 17 54 9 8 10 11 4 7 -7 -3 -13 -2 -13 2 0 5 -7 18 -15 29 -13 17
-14 16 -9 -21 5 -37 4 -39 -10 -21 -8 10 -13 22 -11 26 2 4 -5 17 -16 28 -11
12 -15 22 -9 22 6 0 8 5 5 10 -16 25 -33 7 -39 -40 -4 -28 -11 -48 -15 -46 -5
3 -16 28 -25 56 -15 45 -15 53 -1 80 17 33 45 40 45 12 0 -21 63 -86 73 -76
11 11 8 26 -3 19 -16 -10 -12 11 5 25 19 16 19 34 -1 51 -12 10 -20 10 -35 1
-16 -10 -19 -9 -19 3 0 20 63 20 79 1z m61 10 c0 -3 -4 -8 -10 -11 -5 -3 -10
-1 -10 4 0 6 5 11 10 11 6 0 10 -2 10 -4z m220 -11 c10 -13 11 -18 1 -28 -10
-9 -11 -9 -6 4 4 10 -2 19 -17 27 -16 7 -18 11 -7 11 9 1 22 -6 29 -14z
m-2903 -19 c-7 -14 -13 -23 -15 -21 -7 6 9 45 18 45 4 0 3 -11 -3 -24z m834
-4 c-7 -2 -18 1 -23 6 -8 8 -4 9 13 5 13 -4 18 -8 10 -11z m254 10 c6 -4 11
-20 12 -35 1 -33 1 -33 -21 11 -16 31 -12 40 9 24z m744 -26 c-13 -22 -26 -33
-35 -29 -8 3 -14 7 -14 10 0 3 7 3 15 -1 8 -3 15 -1 15 4 0 6 -8 10 -19 10
-10 0 -25 7 -32 17 -13 15 -12 15 9 4 12 -7 22 -8 22 -2 0 9 20 17 47 20 8 1
5 -12 -8 -33z m61 23 c0 -5 -4 -8 -8 -5 -5 3 -9 -1 -9 -9 0 -19 16 -19 23 0 4
8 11 15 16 15 6 0 5 -6 -2 -15 -9 -11 -10 -18 -1 -29 9 -11 3 -14 -31 -19 -24
-3 -45 -4 -47 -1 -9 9 32 74 46 74 7 0 13 -5 13 -11z m-1790 -34 c0 -35 -12
-43 -37 -27 -8 5 -9 12 -2 22 8 13 10 13 20 0 8 -12 10 -9 6 13 -2 15 0 27 4
27 5 0 9 -16 9 -35z m1104 4 c-3 -5 -11 -9 -17 -8 -8 0 -8 2 1 6 10 4 10 8 0
21 -12 15 -11 16 4 3 10 -7 15 -17 12 -22z m270 24 c-5 -5 -12 -12 -16 -18 -4
-6 -8 -2 -8 8 0 9 7 17 17 17 9 0 12 -3 7 -7z m613 -15 c-3 -8 -6 -5 -6 6 -1
11 2 17 5 13 3 -3 4 -12 1 -19z m503 18 c0 -2 -7 -6 -15 -10 -8 -3 -15 -1 -15
4 0 6 7 10 15 10 8 0 15 -2 15 -4z m343 -56 c-9 -13 -9 -20 0 -29 7 -7 8 -14
1 -21 -7 -7 -14 2 -23 26 -11 30 -11 41 0 61 l13 25 10 -22 c7 -15 6 -27 -1
-40z m-358 34 c9 3 13 2 10 -4 -10 -16 -42 -12 -49 6 -5 14 -4 15 9 4 8 -7 22
-10 30 -6z m149 1 c-6 -15 -51 -17 -57 -2 -3 8 7 12 28 13 20 0 31 -4 29 -11z
m-2751 -10 c4 -8 3 -16 -1 -19 -4 -3 -9 4 -9 15 -2 23 3 25 10 4z m1272 -16
c-5 -14 -2 -19 11 -19 28 0 8 -12 -29 -17 -20 -2 -38 0 -42 7 -11 18 1 23 24
11 17 -10 20 -9 15 4 -8 20 3 48 16 40 6 -4 8 -15 5 -26z m713 0 c11 0 12 -2
4 -6 -15 -6 -42 14 -42 31 0 6 5 3 11 -6 5 -10 18 -18 27 -19z m422 21 c0 -5
-5 -10 -11 -10 -5 0 -7 5 -4 10 3 6 8 10 11 10 2 0 4 -4 4 -10z m-1080 -30 c0
-11 -4 -20 -9 -20 -7 0 -8 17 -2 38 4 10 11 -2 11 -18z m199 -9 c0 -10 -2 -11
-6 -3 -2 6 -16 12 -29 12 -13 0 -24 4 -24 8 0 5 14 7 30 4 20 -3 30 -10 29
-21z m-1339 -1 c0 -5 -7 -7 -15 -4 -8 4 -12 10 -9 15 6 11 24 2 24 -11z m2015
10 c3 -6 -1 -7 -9 -4 -18 7 -21 14 -7 14 6 0 13 -4 16 -10z m525 0 c5 0 4 -14
-2 -31 -11 -33 -18 -29 -33 20 -6 20 -4 23 10 18 9 -4 21 -7 25 -7z m-2503
-22 c-3 -8 -6 -5 -6 6 -1 11 2 17 5 13 3 -3 4 -12 1 -19z m453 8 c0 -8 -4 -17
-9 -21 -6 -3 -9 4 -8 15 1 23 17 28 17 6z m1145 -4 c-3 -3 -11 0 -18 7 -9 10
-8 11 6 5 10 -3 15 -9 12 -12z m423 -25 c6 -5 12 -14 12 -20 0 -7 -5 -5 -10 5
-6 9 -28 19 -49 23 -22 4 -45 12 -50 19 -8 9 3 8 37 -3 26 -9 53 -20 60 -24z
m-1166 5 c-7 -2 -12 -13 -13 -25 0 -13 -3 -16 -6 -9 -3 8 1 25 8 39 8 16 15
20 18 12 2 -7 -1 -15 -7 -17z m355 -4 c-3 -7 -5 -2 -5 12 0 14 2 19 5 13 2 -7
2 -19 0 -25z m248 8 c0 -15 -4 -21 -9 -16 -5 5 -6 16 -3 24 9 22 12 20 12 -8z
m187 2 c4 -10 10 -10 32 0 15 6 39 11 54 11 19 -1 22 -3 8 -6 -15 -4 -16 -7
-5 -14 10 -6 1 -9 -26 -7 -23 1 -46 -2 -53 -6 -7 -4 -12 -2 -12 5 0 8 -4 8
-15 -1 -16 -14 -18 -10 -9 14 7 19 21 21 26 4z m148 3 c0 -6 -4 -13 -10 -16
-5 -3 -10 1 -10 9 0 9 5 16 10 16 6 0 10 -4 10 -9z m-2335 -19 c-3 -3 -11 0
-18 7 -9 10 -8 11 6 5 10 -3 15 -9 12 -12z m135 11 c0 -5 -16 -8 -35 -8 -19 0
-35 3 -35 8 0 4 16 7 35 7 19 0 35 -3 35 -7z m47 1 c-3 -3 -12 -4 -19 -1 -8 3
-5 6 6 6 11 1 17 -2 13 -5z m1266 -25 c-6 -22 14 -52 29 -43 5 3 1 15 -9 27
l-18 22 23 -19 c29 -25 30 -66 1 -66 -11 0 -17 5 -14 10 3 6 3 15 -1 22 -5 8
-10 6 -15 -8 -6 -14 -8 -10 -8 18 -1 20 -4 44 -7 52 -4 12 -2 15 9 10 9 -3 13
-13 10 -25z m427 10 c0 -14 -17 -10 -23 5 -4 10 -1 13 9 9 7 -3 14 -9 14 -14z
m-2053 -11 c-3 -8 -6 -5 -6 6 -1 11 2 17 5 13 3 -3 4 -12 1 -19z m107 14 c3
-5 -10 -8 -29 -8 -18 0 -31 4 -29 8 7 11 51 10 58 0z m946 -7 c0 -8 -2 -15 -4
-15 -2 0 -6 7 -10 15 -3 8 -1 15 4 15 6 0 10 -7 10 -15z m2280 -1 c0 -10 -6
-14 -15 -10 -8 3 -15 0 -15 -6 0 -6 -3 -8 -6 -5 -8 8 14 37 27 37 5 0 9 -7 9
-16z m-2380 2 c0 -11 -19 -15 -25 -6 -3 5 1 10 9 10 9 0 16 -2 16 -4z m2120
-15 c-15 -29 -27 -33 -24 -8 1 12 3 23 3 25 1 1 8 2 16 2 12 0 14 -4 5 -19z
m-1142 -16 c-3 -3 -9 2 -12 12 -6 14 -5 15 5 6 7 -7 10 -15 7 -18z m862 -2
c-1 -27 -1 -27 -15 -9 -12 16 -12 22 -2 28 17 11 17 11 17 -19z m-1727 2 c-3
-9 -8 -14 -10 -11 -3 3 -2 9 2 15 9 16 15 13 8 -4z m529 -10 c3 -14 1 -25 -3
-25 -5 0 -9 11 -9 25 0 14 2 25 4 25 2 0 6 -11 8 -25z m448 16 c0 -5 -8 -15
-17 -22 -11 -10 -14 -10 -9 -1 5 8 1 12 -11 13 -16 0 -16 1 2 9 27 11 35 12
35 1z m455 -7 c18 -12 25 -25 25 -48 l-1 -31 -37 41 c-21 22 -42 39 -49 37 -6
-2 -14 0 -16 4 -10 16 53 13 78 -3z m-569 -25 c19 -22 19 -22 -3 -8 -13 8 -23
17 -23 21 0 12 6 9 26 -13z m521 -20 c2 -11 -1 -18 -6 -14 -6 3 -9 14 -8 25 2
23 10 17 14 -11z m-699 -4 c-6 -14 -13 -24 -14 -22 -6 6 9 47 17 47 5 0 3 -11
-3 -25z m69 -7 c-3 -8 -6 -5 -6 6 -1 11 2 17 5 13 3 -3 4 -12 1 -19z m1213 12
c0 -5 -2 -10 -4 -10 -3 0 -8 5 -11 10 -3 6 -1 10 4 10 6 0 11 -4 11 -10z m49
-4 c6 -8 25 -19 42 -26 16 -7 27 -15 25 -18 -5 -5 -96 45 -96 53 0 10 18 4 29
-9z m-2794 -6 c-3 -5 -12 -10 -18 -10 -7 0 -6 4 3 10 19 12 23 12 15 0z m527
3 c-6 -2 -10 -9 -6 -14 3 -5 0 -9 -5 -9 -12 0 -14 13 -4 23 3 4 11 7 17 6 6 0
5 -3 -2 -6z m1978 -14 c0 -11 -4 -18 -10 -14 -5 3 -7 12 -3 20 7 21 13 19 13
-6z m105 1 c3 -5 1 -10 -4 -10 -6 0 -11 5 -11 10 0 6 2 10 4 10 3 0 8 -4 11
-10z m195 -20 c12 -8 10 -10 -9 -10 -13 0 -21 3 -18 7 4 3 -1 12 -11 20 -16
13 -15 13 3 4 11 -6 27 -15 35 -21z m291 11 c-11 -7 -10 -10 5 -14 10 -2 -2
-5 -27 -6 -30 -1 -51 4 -59 14 -11 13 -5 15 41 15 35 0 49 -3 40 -9z m-1741
-17 c0 -2 -9 -4 -21 -4 -11 0 -18 4 -14 10 5 8 35 3 35 -6z m2170 -34 c0 -5
-5 -10 -11 -10 -5 0 -7 5 -4 10 3 6 8 10 11 10 2 0 4 -4 4 -10z m-2186 -17
c11 -28 -10 -35 -22 -8 -9 20 -9 25 2 25 8 0 17 -8 20 -17z m1493 -4 c-22 -12
-46 -17 -55 -14 -12 5 -13 9 -4 12 6 3 10 9 6 14 -3 5 16 9 43 9 l48 -1 -38
-20z m148 11 c3 -5 -1 -10 -9 -10 -9 0 -16 5 -16 10 0 6 4 10 9 10 6 0 13 -4
16 -10z m65 -2 c0 -9 2 -10 8 -2 5 8 23 0 57 -23 58 -40 31 -36 -55 8 -39 20
-49 28 -32 29 12 0 22 -6 22 -12z m80 0 c0 -4 6 -8 14 -8 8 0 16 -7 20 -15 5
-14 2 -14 -22 0 -52 28 -59 34 -34 32 12 0 22 -5 22 -9z m-587 -18 c3 -11 1
-18 -4 -14 -5 3 -9 12 -9 20 0 20 7 17 13 -6z m216 -16 c14 -12 -19 -1 -35 12
-18 14 -18 14 6 3 14 -6 27 -13 29 -15z m241 -10 c54 -35 54 -35 20 -29 -19 3
-65 10 -101 15 -78 11 -101 19 -93 31 6 10 33 7 53 -5 11 -7 13 -5 8 7 -12 32
54 21 113 -19z m49 10 c14 -12 -19 -1 -35 12 -18 14 -18 14 6 3 14 -6 27 -13
29 -15z m-1789 -3 c0 -5 -7 -12 -16 -15 -14 -5 -15 -4 -4 9 14 17 20 19 20 6z
m880 -13 c0 -18 -2 -20 -9 -8 -6 8 -7 18 -5 22 9 14 14 9 14 -14z m-955 -8
c17 -19 17 -20 0 -20 -10 0 -15 3 -12 7 4 3 2 12 -4 20 -18 21 -4 15 16 -7z
m794 -27 c2 -2 -12 -3 -31 -3 -29 0 -36 3 -33 18 2 9 4 21 4 26 1 5 13 -1 29
-15 15 -13 29 -25 31 -26z m-679 33 c0 -2 -15 -9 -32 -15 -30 -10 -31 -9 -14
4 18 14 46 20 46 11z m50 -6 c0 -5 -8 -10 -17 -10 -15 0 -16 2 -3 10 19 12 20
12 20 0z m257 4 c-3 -3 -12 -4 -19 -1 -8 3 -5 6 6 6 11 1 17 -2 13 -5z m193
-3 c0 -5 -12 -8 -26 -5 -20 4 -25 1 -21 -9 3 -7 -1 -14 -8 -14 -10 0 -11 5 -4
19 10 18 59 26 59 9z m14 -15 c-7 -18 -34 -22 -34 -5 0 5 5 7 10 4 6 -3 13 1
16 10 4 9 8 14 10 12 3 -2 2 -12 -2 -21z m931 14 c-3 -5 -12 -10 -18 -10 -7 0
-6 4 3 10 19 12 23 12 15 0z m85 0 c12 -8 11 -10 -7 -10 -13 0 -23 5 -23 10 0
13 11 13 30 0z m-434 -27 c-6 -6 -36 9 -36 18 0 5 9 4 20 -3 10 -7 18 -14 16
-15z m-2603 10 c-7 -2 -19 -2 -25 0 -7 3 -2 5 12 5 14 0 19 -2 13 -5z m2497
-3 c0 -5 -2 -10 -4 -10 -3 0 -8 5 -11 10 -3 6 -1 10 4 10 6 0 11 -4 11 -10z
m665 -1 c11 -1 0 -5 -25 -8 -25 -4 -49 -3 -54 0 -5 4 -16 5 -25 2 -14 -4 -14
-3 -1 6 8 7 31 9 50 6 19 -2 44 -6 55 -6z m-382 -6 c-7 -2 -19 -2 -25 0 -7 3
-2 5 12 5 14 0 19 -2 13 -5z m554 1 c-3 -3 -12 -4 -19 -1 -8 3 -5 6 6 6 11 1
17 -2 13 -5z m-698 -50 c14 -12 -19 -1 -35 12 -18 14 -18 14 6 3 14 -6 27 -13
29 -15z m-844 7 c3 -5 1 -12 -4 -16 -6 -3 -8 -13 -5 -23 5 -15 4 -15 -6 1 -6
9 -15 15 -20 12 -5 -3 -11 -1 -15 5 -4 6 6 10 22 11 25 0 26 1 8 9 -16 7 -17
9 -3 9 9 1 19 -3 23 -8z m308 -6 c-3 -9 -8 -14 -10 -11 -3 3 -2 9 2 15 9 16
15 13 8 -4z m307 -3 c0 -12 -3 -12 -15 -2 -8 7 -15 13 -15 15 0 1 7 2 15 2 8
0 15 -7 15 -15z m34 10 c3 -5 -1 -9 -9 -9 -8 0 -12 4 -9 9 3 4 7 8 9 8 2 0 6
-4 9 -8z m331 -2 c3 -5 1 -10 -4 -10 -6 0 -11 5 -11 10 0 6 2 10 4 10 3 0 8
-4 11 -10z m251 -2 c-12 20 9 14 30 -9 10 -12 28 -25 39 -30 16 -6 17 -8 3 -8
-9 -1 -20 4 -24 10 -4 8 -12 3 -20 -12 -7 -13 -13 -18 -14 -11 0 7 -4 11 -9 7
-5 -3 -12 -1 -16 5 -3 5 -1 10 5 10 6 0 8 5 5 10 -4 6 -12 10 -18 9 -7 -1 -21
-1 -32 0 -18 1 -17 3 5 15 18 9 29 10 39 2 11 -8 13 -8 7 2z m93 3 c9 -6 4 -8
-18 -6 -17 1 -34 5 -38 9 -10 9 40 7 56 -3z m65 -6 c7 -19 -5 -19 -30 0 -19
14 -19 14 2 15 12 0 24 -7 28 -15z m169 8 c-7 -2 -19 -2 -25 0 -7 3 -2 5 12 5
14 0 19 -2 13 -5z m61 -5 c-3 -4 -9 -8 -15 -8 -5 0 -9 4 -9 8 0 5 7 9 15 9 8
0 12 -4 9 -9z m-3137 -4 c13 -4 20 -10 17 -15 -3 -5 -11 -6 -17 -2 -7 4 -23 9
-37 11 -13 2 -27 5 -29 8 -6 6 40 5 66 -2z m243 -4 c-8 -5 -19 -10 -25 -10 -5
0 -3 5 5 10 8 5 20 10 25 10 6 0 3 -5 -5 -10z m295 -1 c4 -6 29 -8 63 -5 l57
6 -50 -20 c-61 -24 -79 -25 -71 -4 3 8 2 12 -4 9 -6 -3 -10 -2 -10 4 0 5 -15
12 -32 14 l-33 4 37 1 c20 1 40 -3 43 -9z m228 4 c-13 -2 -33 -2 -45 0 -13 2
-3 4 22 4 25 0 35 -2 23 -4z m127 -5 c0 6 10 12 22 12 l22 0 -22 -16 c-16 -11
-32 -14 -50 -9 -25 7 -25 8 -7 15 12 4 23 3 27 -4 6 -8 8 -7 8 2z m186 -9 c19
-11 38 -18 44 -14 5 3 10 1 10 -4 0 -14 -40 -14 -60 -1 -8 5 -10 10 -5 10 6 0
-1 7 -15 15 -14 8 -21 14 -16 15 5 0 24 -9 42 -21z m74 17 c0 -11 -19 -15 -25
-6 -3 5 1 10 9 10 9 0 16 -2 16 -4z m247 -9 c0 -7 -9 -13 -19 -13 -18 0 -18 1
-2 13 10 7 18 13 19 13 1 0 2 -6 2 -13z m260 -9 c-3 -8 -6 -5 -6 6 -1 11 2 17
5 13 3 -3 4 -12 1 -19z m373 11 c0 -5 6 -7 13 -3 9 6 9 5 -1 -8 -8 -10 -21
-13 -40 -9 -25 5 -25 6 -4 9 12 2 20 8 17 13 -4 5 -1 9 4 9 6 0 11 -5 11 -11z
m264 -5 c5 -12 2 -15 -10 -10 -8 3 -20 6 -25 6 -5 0 -9 5 -9 10 0 16 37 11 44
-6z m926 5 c0 -10 -30 -20 -41 -13 -5 3 -7 9 -5 13 6 9 46 9 46 0z m280 1 c0
-5 -4 -10 -10 -10 -5 0 -10 5 -10 10 0 6 5 10 10 10 6 0 10 -4 10 -10z m61 -1
c-14 -5 -28 -6 -32 -2 -4 4 6 9 24 10 30 1 31 1 8 -8z m83 -5 c3 -8 2 -12 -4
-9 -6 3 -10 10 -10 16 0 14 7 11 14 -7z m-3884 -9 c-7 -8 -17 -12 -22 -9 -6 4
-5 10 3 15 22 14 33 10 19 -6z m600 11 c0 -11 -19 -15 -25 -6 -3 5 1 10 9 10
9 0 16 -2 16 -4z m50 -7 c0 -5 5 -7 10 -4 6 3 10 2 10 -3 0 -11 -30 -25 -38
-17 -3 3 0 5 8 5 10 0 10 3 0 15 -9 10 -9 15 -1 15 6 0 11 -5 11 -11z m604 -4
c3 -9 0 -15 -9 -15 -9 0 -12 6 -9 15 4 8 7 15 9 15 2 0 5 -7 9 -15z m1437 -1
c12 -15 11 -16 -11 -9 -35 10 -49 25 -23 25 11 0 27 -7 34 -16z m-2731 -4 c0
-5 -5 -10 -11 -10 -5 0 -7 5 -4 10 3 6 8 10 11 10 2 0 4 -4 4 -10z m773 -2 c2
-7 2 -21 -1 -31 -3 -14 -7 -15 -18 -6 -18 15 -18 49 0 49 8 0 16 -6 19 -12z
m30 -20 c6 -22 5 -22 -8 -4 -17 22 -20 40 -6 32 5 -3 11 -16 14 -28z m257 23
c0 -5 -9 -7 -20 -4 -11 3 -20 7 -20 9 0 2 9 4 20 4 11 0 20 -4 20 -9z m440 0
c0 -15 -23 -26 -28 -13 -2 7 -8 10 -12 7 -5 -3 -11 -2 -14 3 -2 4 9 9 25 10
16 1 29 -2 29 -7z m1403 2 c-7 -2 -19 -2 -25 0 -7 3 -2 5 12 5 14 0 19 -2 13
-5z m60 -19 c6 1 9 1 5 -1 -4 -2 -4 -11 -1 -19 6 -16 -5 -18 -27 -4 -13 8 -13
10 0 10 11 0 11 3 2 12 -7 7 -12 17 -12 23 0 5 5 2 11 -7 5 -9 15 -16 22 -14z
m929 4 c13 -16 18 -18 15 -7 -4 13 -1 15 14 12 10 -3 19 -10 19 -16 0 -6 -3
-7 -7 -4 -3 4 -11 2 -18 -3 -8 -7 -19 -2 -35 15 -13 14 -20 25 -16 25 4 0 17
-10 28 -22z m-2737 -8 c3 -5 2 -10 -4 -10 -5 0 -13 5 -16 10 -3 6 -2 10 4 10
5 0 13 -4 16 -10z m610 0 c3 -5 1 -10 -4 -10 -6 0 -11 5 -11 10 0 6 2 10 4 10
3 0 8 -4 11 -10z m1418 -4 c4 -10 1 -13 -8 -9 -8 3 -12 9 -9 14 7 12 11 11 17
-5z m-178 -6 c3 -5 1 -10 -4 -10 -6 0 -11 5 -11 10 0 6 2 10 4 10 3 0 8 -4 11
-10z m705 -6 c0 -2 -9 -4 -21 -4 -11 0 -18 4 -14 10 5 8 35 3 35 -6z m-2804
-12 c-10 -2 -22 0 -28 6 -6 6 0 7 19 4 21 -5 23 -7 9 -10z m894 14 c0 -3 -4
-8 -10 -11 -5 -3 -10 -1 -10 4 0 6 5 11 10 11 6 0 10 -2 10 -4z m241 -5 c-8
-5 -20 -7 -28 -4 -21 8 -15 13 15 13 20 0 23 -3 13 -9z"/>
<path d="M2560 2150 c0 -5 5 -10 11 -10 5 0 7 5 4 10 -3 6 -8 10 -11 10 -2 0
-4 -4 -4 -10z"/>
<path d="M3115 2100 c3 -5 14 -10 23 -10 15 0 15 2 2 10 -20 13 -33 13 -25 0z"/>
<path d="M3196 2061 c-4 -5 -1 -11 5 -13 6 -2 12 -22 13 -45 0 -36 2 -39 14
-22 10 15 10 24 -2 54 -16 36 -21 41 -30 26z"/>
<path d="M3273 1945 c4 -9 7 -21 7 -26 0 -5 4 -9 10 -9 5 0 7 7 4 15 -8 21 13
19 25 -2 6 -10 10 -13 11 -8 0 18 -14 32 -39 40 -20 6 -23 4 -18 -10z"/>
<path d="M3321 1874 c0 -11 3 -14 6 -6 3 7 2 16 -1 19 -3 4 -6 -2 -5 -13z"/>
<path d="M2886 2035 c-7 -20 6 -26 21 -10 10 10 9 14 -2 18 -7 3 -16 -1 -19
-8z"/>
<path d="M3118 1947 c12 -15 5 -58 -12 -69 -7 -5 -7 -8 2 -8 8 0 12 -9 10 -21
-2 -15 3 -23 15 -25 18 -2 23 11 7 21 -14 9 -8 55 7 55 7 0 16 -18 19 -40 6
-34 8 -37 21 -25 8 8 17 15 21 15 3 0 1 -5 -6 -12 -15 -15 -16 -32 -1 -23 6 4
9 1 8 -6 -2 -8 5 -28 14 -46 21 -40 7 -94 -24 -88 -12 2 -19 -2 -19 -11 0 -8
5 -14 10 -14 6 0 10 5 10 11 0 8 4 8 14 0 11 -9 15 -9 19 1 4 10 7 10 18 -1 8
-8 9 -11 2 -7 -6 3 -14 2 -18 -3 -3 -6 -12 -8 -20 -4 -11 4 -15 -3 -15 -26 0
-17 3 -30 8 -30 22 4 34 -4 53 -33 l21 -33 -5 29 -5 28 35 -38 c19 -22 30 -30
25 -19 -5 11 -7 26 -5 33 3 6 1 12 -4 12 -12 0 -45 58 -53 94 -4 17 -12 30
-18 29 -13 -3 -12 18 1 28 5 3 -1 21 -12 39 -19 31 -19 68 0 39 6 -10 9 -3 9
19 0 24 4 31 13 26 6 -4 0 6 -15 23 -16 16 -28 34 -28 39 0 5 -8 10 -19 10
-11 0 -17 -5 -14 -13 3 -7 9 -11 13 -8 4 3 10 -2 14 -10 7 -18 -9 -20 -23 -2
-6 6 -22 27 -37 45 -14 17 -30 32 -36 32 -7 0 -7 -4 0 -13z m145 -332 c-3 -9
-8 -14 -10 -11 -3 3 -2 9 2 15 9 16 15 13 8 -4z"/>
<path d="M3070 1872 c0 -6 5 -14 10 -17 15 -10 12 -23 -7 -28 -15 -4 -15 -5 2
-6 12 -1 28 -15 39 -36 21 -38 31 -43 40 -20 3 8 12 15 21 15 8 0 15 5 15 11
0 7 -10 5 -25 -5 -24 -16 -25 -16 -45 16 -11 18 -20 38 -20 44 0 6 -7 17 -15
24 -9 8 -15 9 -15 2z"/>
<path d="M3270 1780 c0 -5 5 -10 11 -10 5 0 7 5 4 10 -3 6 -8 10 -11 10 -2 0
-4 -4 -4 -10z"/>
<path d="M2795 1760 c-3 -5 -1 -10 4 -10 6 0 11 5 11 10 0 6 -2 10 -4 10 -3 0
-8 -4 -11 -10z"/>
<path d="M2820 1751 c0 -5 5 -13 10 -16 6 -3 10 -2 10 4 0 5 -4 13 -10 16 -5
3 -10 2 -10 -4z"/>
<path d="M3018 1708 c17 -17 42 -19 35 -2 -3 8 -15 14 -26 14 -16 0 -18 -3 -9
-12z"/>
<path d="M2730 1610 c0 -5 5 -10 11 -10 5 0 7 5 4 10 -3 6 -8 10 -11 10 -2 0
-4 -4 -4 -10z"/>
<path d="M3385 1591 c5 -16 4 -21 -4 -17 -13 8 -14 -3 -2 -22 6 -10 10 -7 15
13 4 17 2 32 -5 39 -8 8 -9 5 -4 -13z"/>
<path d="M3343 1565 c0 -8 4 -12 9 -9 4 3 8 9 8 15 0 5 -4 9 -8 9 -5 0 -9 -7
-9 -15z"/>
<path d="M3352 1510 c5 -16 68 -26 68 -11 0 6 -6 11 -12 11 -7 0 -24 3 -37 7
-17 4 -22 2 -19 -7z"/>
<path d="M3020 1484 c0 -8 -4 -12 -10 -9 -5 3 -7 0 -4 -8 3 -8 0 -18 -6 -22
-9 -6 -9 -10 1 -16 21 -13 29 -11 22 6 -3 9 -2 15 3 14 27 -5 32 1 21 26 -13
28 -27 33 -27 9z"/>
<path d="M3290 1443 c0 -13 14 -28 30 -31 11 -3 10 2 -4 17 -20 22 -26 25 -26
14z"/>
<path d="M3040 1423 c0 -9 3 -13 7 -10 3 4 12 2 20 -4 16 -14 17 3 1 19 -17
17 -28 15 -28 -5z"/>
<path d="M3115 1416 c-20 -21 -26 -36 -16 -36 6 0 15 9 21 21 13 24 10 32 -5
15z"/>
<path d="M2986 1395 c4 -8 11 -15 16 -15 6 0 5 6 -2 15 -7 8 -14 15 -16 15 -2
0 -1 -7 2 -15z"/>
<path d="M2890 1951 c0 -7 -5 -9 -12 -5 -7 5 -8 3 -3 -5 5 -9 10 -10 18 -2 6
6 8 14 4 18 -4 3 -7 1 -7 -6z"/>
<path d="M2907 1936 c-9 -13 -13 -26 -10 -30 3 -3 12 6 20 21 17 34 10 41 -10
9z"/>
<path d="M2850 1924 c0 -8 5 -12 10 -9 6 4 8 11 5 16 -9 14 -15 11 -15 -7z"/>
<path d="M1990 1950 c0 -5 5 -10 10 -10 6 0 10 5 10 10 0 6 -4 10 -10 10 -5 0
-10 -4 -10 -10z"/>
<path d="M2995 1591 c-3 -5 -1 -12 5 -16 5 -3 10 1 10 9 0 18 -6 21 -15 7z"/>
<path d="M2755 1400 c-3 -6 1 -7 9 -4 18 7 21 14 7 14 -6 0 -13 -4 -16 -10z"/>
<path d="M2885 1350 c-3 -5 1 -10 10 -10 9 0 13 5 10 10 -3 6 -8 10 -10 10 -2
0 -7 -4 -10 -10z"/>
<path d="M1395 1338 c2 -10 -2 -24 -9 -30 -10 -9 -5 -16 22 -30 19 -9 48 -19
63 -22 23 -3 29 -1 29 15 0 13 -7 19 -22 19 -19 0 -20 -2 -8 -10 12 -8 10 -10
-8 -10 -13 0 -21 4 -17 9 3 5 0 13 -6 17 -8 5 -9 3 -4 -6 5 -9 4 -11 -4 -6 -9
6 -9 11 0 22 6 8 8 14 3 14 -4 0 -3 5 4 12 19 19 15 24 -17 24 -23 0 -28 -4
-26 -18z m28 -8 c3 -11 1 -18 -4 -14 -5 3 -9 12 -9 20 0 20 7 17 13 -6z"/>
<path d="M1835 1359 c-10 -15 3 -25 16 -12 7 7 7 13 1 17 -6 3 -14 1 -17 -5z"/>
<path d="M1715 1271 c-3 -5 -2 -12 3 -15 5 -3 9 1 9 9 0 17 -3 19 -12 6z"/>
<path d="M2417 1006 c-4 -10 1 -12 14 -9 23 6 24 9 5 16 -8 3 -17 0 -19 -7z"/>
<path d="M2544 879 c-3 -6 -2 -15 3 -20 5 -5 9 -1 9 11 0 23 -2 24 -12 9z"/>
<path d="M3388 823 c7 -3 16 -2 19 1 4 3 -2 6 -13 5 -11 0 -14 -3 -6 -6z"/>
<path d="M3260 730 c-9 -6 -10 -10 -3 -10 6 0 15 5 18 10 8 12 4 12 -15 0z"/>
<path d="M2679 3334 c-13 -16 -11 -21 11 -24 51 -7 65 8 25 26 -19 9 -27 9
-36 -2z m31 -15 c0 -6 -4 -7 -10 -4 -5 3 -10 11 -10 16 0 6 5 7 10 4 6 -3 10
-11 10 -16z"/>
<path d="M3074 3314 c1 -8 9 -20 16 -27 8 -6 11 -8 7 -3 -4 6 5 16 20 23 16 7
21 11 13 9 -8 -2 -25 0 -37 5 -16 6 -21 4 -19 -7z"/>
<path d="M2545 3290 c-3 -5 -1 -10 4 -10 6 0 11 5 11 10 0 6 -2 10 -4 10 -3 0
-8 -4 -11 -10z"/>
<path d="M2515 3220 c-3 -5 1 -10 9 -10 8 0 18 5 21 10 3 6 -1 10 -9 10 -8 0
-18 -4 -21 -10z"/>
<path d="M2990 3220 c0 -5 5 -10 11 -10 5 0 7 5 4 10 -3 6 -8 10 -11 10 -2 0
-4 -4 -4 -10z"/>
<path d="M2562 3207 c-10 -12 -8 -14 13 -14 14 0 25 4 25 9 0 5 -4 7 -9 4 -5
-4 -11 -1 -13 5 -2 7 -8 6 -16 -4z"/>
<path d="M2610 3198 c0 -19 18 -43 25 -36 9 9 -4 48 -16 48 -5 0 -9 -6 -9 -12z"/>
<path d="M2916 3203 c-11 -11 -6 -23 9 -23 12 0 13 -5 7 -17 -5 -10 -7 -24 -5
-30 3 -7 -2 -13 -11 -13 -19 0 -19 -2 -5 -34 12 -26 46 -41 52 -22 2 6 0 19
-5 29 -5 10 -5 17 0 17 16 0 21 38 6 44 -9 3 -13 15 -10 29 3 17 -1 23 -14 24
-10 1 -21 -1 -24 -4z"/>
<path d="M3311 3201 c14 -5 36 -14 50 -22 26 -14 31 -16 55 -18 8 0 13 -5 10
-9 -6 -10 39 -52 55 -52 8 0 7 -5 -1 -16 -11 -12 -10 -18 3 -31 8 -9 23 -13
31 -10 19 7 22 29 4 26 -7 -1 -20 -1 -28 0 -12 1 -12 4 2 15 16 12 15 15 -17
31 -18 11 -32 22 -30 25 7 12 -44 53 -67 56 -13 1 -23 3 -23 4 0 1 -16 3 -35
5 -30 4 -31 3 -9 -4z"/>
<path d="M2660 3195 c0 -15 18 -40 24 -34 3 3 -1 14 -9 25 -8 10 -14 15 -15 9z"/>
<path d="M3022 3188 c2 -5 8 -9 13 -9 5 0 11 4 13 9 1 5 -4 9 -13 9 -9 0 -14
-4 -13 -9z"/>
<path d="M2545 3170 c-3 -5 1 -13 10 -16 22 -9 29 1 11 15 -10 8 -16 9 -21 1z"/>
<path d="M2990 3162 c0 -15 39 -22 47 -9 3 7 3 9 -2 5 -4 -4 -16 -3 -26 3 -11
5 -19 6 -19 1z"/>
<path d="M2630 3141 c0 -5 7 -15 17 -22 15 -13 15 -12 4 9 -12 23 -21 28 -21
13z"/>
<path d="M3068 3143 c6 -2 10 -9 7 -13 -3 -5 -2 -11 3 -14 4 -2 9 4 9 15 1 12
-4 19 -15 18 -11 0 -12 -2 -4 -6z"/>
<path d="M2600 3131 c0 -5 5 -13 10 -16 6 -3 10 -2 10 4 0 5 -4 13 -10 16 -5
3 -10 2 -10 -4z"/>
<path d="M3033 3125 c-7 -7 -14 -25 -17 -39 -3 -14 -7 -30 -10 -35 -7 -11 14
-20 32 -14 6 3 12 15 12 27 0 12 -6 28 -12 35 -7 8 -8 11 -3 8 6 -3 12 3 12
14 2 22 2 22 -14 4z"/>
<path d="M3159 3112 c6 -12 17 -24 24 -28 7 -5 5 0 -3 11 -8 10 -14 21 -12 24
2 3 -2 7 -8 9 -9 3 -9 -1 -1 -16z"/>
<path d="M3271 3114 c0 -11 3 -14 6 -6 3 7 2 16 -1 19 -3 4 -6 -2 -5 -13z"/>
<path d="M2528 3085 c-10 -13 -18 -30 -18 -37 0 -7 9 2 21 21 24 39 22 49 -3
16z"/>
<path d="M2795 3091 c5 -10 2 -11 -13 -7 -23 8 -41 -12 -22 -24 7 -4 10 -12 7
-18 -4 -5 13 -9 43 -9 28 0 50 2 50 6 0 3 -17 19 -37 35 -20 16 -33 24 -28 17z"/>
<path d="M3430 3083 c0 -5 3 -13 7 -17 10 -10 12 -49 3 -66 -7 -11 -11 -9 -21
13 -10 22 -15 25 -27 14 -13 -10 -15 -9 -9 6 3 9 2 17 -3 17 -14 0 -12 -24 2
-38 18 -18 -5 -38 -23 -20 -8 8 -37 13 -71 13 -32 -1 -58 2 -58 6 0 4 -9 5
-20 2 -11 -3 -18 -9 -15 -13 7 -12 -66 -21 -97 -13 -15 5 -27 13 -25 18 1 6 5
9 8 8 3 -1 5 8 4 20 -1 12 -3 29 -4 37 -1 11 -4 10 -13 -4 -8 -15 -8 -21 1
-24 8 -3 5 -12 -11 -30 -13 -14 -18 -22 -12 -19 6 4 16 -4 22 -18 9 -19 21
-25 64 -30 29 -4 59 -5 67 -3 8 2 17 -7 20 -20 6 -24 20 -30 30 -14 4 6 15 3
29 -9 22 -18 22 -46 0 -33 -6 4 -9 1 -6 -7 4 -9 18 -13 44 -12 32 2 36 0 21
-8 -18 -10 -18 -11 0 -25 21 -15 103 -19 103 -4 0 6 13 10 30 10 16 0 48 9 70
21 22 12 46 19 54 16 10 -4 12 0 8 15 -4 17 -2 20 13 15 9 -4 24 -2 31 4 8 6
14 8 14 3 0 -5 4 -3 9 5 8 12 12 12 25 2 11 -9 16 -10 16 -2 0 6 -5 11 -10 11
-7 0 -7 6 0 20 8 14 21 20 45 20 19 0 35 5 35 10 0 6 -7 10 -15 10 -8 0 -15 4
-15 9 0 6 -17 8 -37 5 -27 -3 -32 -2 -19 4 17 7 13 10 -22 19 -33 9 -44 8 -53
-3 -9 -11 -8 -14 1 -14 8 0 11 -2 8 -5 -8 -9 -38 6 -32 16 3 5 1 9 -5 9 -5 0
-12 -6 -14 -12 -3 -7 -6 -3 -6 8 -1 12 -8 28 -17 35 -14 11 -19 10 -35 -10
-11 -13 -19 -17 -19 -10 0 7 -3 9 -6 6 -4 -4 -1 -13 6 -22 10 -13 9 -15 -8
-15 -11 0 -23 -6 -25 -12 -4 -10 -6 -10 -6 -1 -1 6 3 14 8 17 5 3 7 16 3 29
-6 24 -42 76 -42 60z"/>
<path d="M2182 3073 c-7 -2 -17 -14 -23 -25 -10 -18 -8 -18 20 3 39 28 40 37
3 22z"/>
<path d="M3235 3070 c3 -5 8 -10 11 -10 2 0 4 5 4 10 0 6 -5 10 -11 10 -5 0
-7 -4 -4 -10z"/>
<path d="M2221 3055 c-42 -14 -53 -35 -18 -35 21 0 66 35 56 44 -2 2 -19 -2
-38 -9z"/>
<path d="M2375 3060 c-3 -5 -1 -10 4 -10 6 0 11 5 11 10 0 6 -2 10 -4 10 -3 0
-8 -4 -11 -10z"/>
<path d="M3109 3059 c-7 -36 -8 -52 -2 -43 5 6 14 13 22 15 10 4 10 7 -3 18
-9 7 -16 12 -17 10z"/>
<path d="M2455 3039 c-4 -6 -5 -12 -2 -15 2 -3 7 2 10 11 7 17 1 20 -8 4z"/>
<path d="M2720 3038 c0 -4 4 -8 9 -8 6 0 12 4 15 8 3 5 -1 9 -9 9 -8 0 -15 -4
-15 -9z"/>
<path d="M2517 3024 c-10 -11 3 -24 23 -24 13 0 17 5 14 15 -6 15 -26 20 -37
9z"/>
<path d="M3130 3013 c0 -18 18 -25 36 -15 15 8 15 10 0 15 -9 4 -16 1 -16 -6
0 -8 -4 -6 -10 3 -6 9 -10 10 -10 3z"/>
<path d="M1958 2996 c-29 -7 -38 -14 -37 -30 0 -21 1 -21 9 -1 5 11 9 15 9 8
1 -7 18 -24 38 -38 24 -16 31 -25 20 -25 -21 0 -22 -7 -2 -26 21 -21 49 -13
53 14 2 13 10 26 17 28 20 8 -13 76 -34 72 -9 -1 -20 0 -26 3 -5 3 -27 1 -47
-5z m82 -50 c-13 -13 -35 7 -25 24 5 8 11 8 21 -1 10 -8 12 -15 4 -23z"/>
<path d="M2660 2993 c-14 -3 -32 -10 -40 -17 -18 -15 -89 -36 -122 -36 -13 0
-29 -5 -34 -10 -7 -7 -25 -8 -55 -1 -28 6 -47 6 -55 0 -8 -7 -14 -6 -19 1 -3
6 -11 8 -16 4 -5 -3 -7 -8 -5 -12 2 -4 -12 -7 -32 -8 -21 0 -31 1 -24 3 18 7
14 21 -8 28 -11 4 -18 12 -14 18 3 7 -3 3 -13 -8 -10 -12 -27 -24 -37 -28 -17
-7 -18 -10 -5 -21 10 -11 27 -12 62 -7 26 5 50 4 53 -1 8 -12 48 -10 62 4 9 9
12 6 12 -15 0 -21 5 -27 23 -27 22 -1 132 -9 172 -13 15 -2 20 4 20 23 0 19 5
25 20 23 11 -1 46 5 79 14 41 12 63 13 75 6 9 -6 48 -8 86 -6 81 5 95 8 95 23
0 14 -41 29 -96 34 -25 3 -51 8 -57 13 -7 5 -33 8 -59 8 -26 -1 -44 3 -42 7 3
4 4 7 2 7 -2 -1 -14 -4 -28 -6z m185 -43 c-3 -5 -10 -10 -16 -10 -5 0 -9 5 -9
10 0 6 7 10 16 10 8 0 12 -4 9 -10z"/>
<path d="M3800 2940 c0 -5 13 -10 29 -10 17 0 33 -4 36 -10 3 -5 11 -10 17
-10 7 0 2 9 -10 20 -22 21 -72 28 -72 10z"/>
<path d="M3785 2910 c3 -5 8 -10 11 -10 2 0 4 5 4 10 0 6 -5 10 -11 10 -5 0
-7 -4 -4 -10z"/>
<path d="M1139 2905 c-3 -2 -19 -5 -36 -7 -18 -1 -31 -7 -30 -12 1 -6 -3 -10
-10 -11 -6 0 -15 -3 -19 -7 -3 -4 4 -5 16 -3 13 3 26 8 29 12 3 5 15 10 26 11
18 3 47 22 34 22 -3 0 -8 -2 -10 -5z"/>
<path d="M3993 2868 c-35 -16 -101 -17 -126 -1 -4 2 -14 -1 -22 -7 -8 -6 -18
-9 -23 -6 -20 12 -20 -35 -1 -53 11 -10 21 -28 22 -40 2 -24 10 -27 29 -8 28
29 53 35 98 27 25 -5 64 -9 88 -10 l42 0 0 60 0 60 -34 -3 c-19 -1 -51 -10
-73 -19z"/>
<path d="M2067 2864 c3 -7 9 -14 14 -14 14 0 10 17 -5 23 -10 4 -13 1 -9 -9z"/>
<path d="M3776 2845 c-3 -8 -1 -15 3 -15 5 0 11 7 15 15 3 8 1 15 -3 15 -5 0
-11 -7 -15 -15z"/>
<path d="M1921 2756 c2 -2 42 -6 89 -9 52 -4 77 -3 65 3 -19 8 -163 14 -154 6z"/>
<path d="M2652 2744 c-12 -8 -22 -21 -21 -27 0 -9 2 -9 5 0 7 16 34 5 28 -12
-7 -17 1 -21 55 -30 l43 -7 -33 46 c-38 50 -45 53 -77 30z"/>
<path d="M2114 2735 c23 -18 33 -19 41 -5 3 5 0 7 -8 4 -8 -3 -18 -1 -22 5 -3
6 -12 11 -18 11 -7 0 -3 -7 7 -15z"/>
<path d="M2238 2653 c7 -3 16 -2 19 1 4 3 -2 6 -13 5 -11 0 -14 -3 -6 -6z"/>
<path d="M2715 2649 c-4 -6 -4 -13 -1 -16 8 -8 36 5 36 17 0 13 -27 13 -35 -1z"/>
<path d="M3540 2633 c0 -5 4 -14 9 -22 8 -12 12 -12 25 2 22 22 20 27 -9 27
-14 0 -25 -3 -25 -7z"/>
<path d="M3244 2579 c-13 -15 -14 -19 -3 -19 8 0 22 7 32 14 14 11 15 15 3 19
-8 3 -22 -3 -32 -14z"/>
<path d="M1225 2410 c3 -5 8 -10 11 -10 2 0 4 5 4 10 0 6 -5 10 -11 10 -5 0
-7 -4 -4 -10z"/>
<path d="M3215 2370 c22 -24 25 -25 25 -4 0 8 -4 12 -10 9 -5 -3 -10 -1 -10 4
0 6 -5 11 -12 11 -6 0 -3 -9 7 -20z"/>
<path d="M1045 2370 c-3 -5 -1 -10 4 -10 6 0 11 5 11 10 0 6 -2 10 -4 10 -3 0
-8 -4 -11 -10z"/>
<path d="M994 2315 c-4 -9 -13 -13 -23 -10 -11 3 -27 -5 -41 -20 -13 -14 -20
-25 -15 -25 5 0 0 -7 -11 -16 -19 -15 -19 -16 1 -9 45 14 135 95 105 95 -6 0
-13 -7 -16 -15z m-34 -30 c-7 -8 -17 -15 -22 -15 -6 0 -5 7 2 15 7 8 17 15 22
15 6 0 5 -7 -2 -15z"/>
<path d="M3652 2294 c10 -10 20 -15 24 -12 3 4 -5 12 -18 18 -22 12 -22 12 -6
-6z"/>
<path d="M4060 2250 c9 -5 9 -9 1 -14 -6 -4 -9 -12 -5 -17 4 -6 14 -3 25 7 26
23 24 32 -7 32 -16 0 -21 -3 -14 -8z"/>
<path d="M855 2227 c-14 -11 -15 -16 -5 -22 11 -7 29 9 30 28 0 10 -3 9 -25
-6z"/>
<path d="M3790 2141 c0 -6 5 -13 10 -16 6 -3 10 1 10 9 0 9 -4 16 -10 16 -5 0
-10 -4 -10 -9z"/>
<path d="M2360 579 c0 -5 -4 -7 -10 -4 -6 3 -7 -1 -4 -9 7 -18 44 -22 44 -5 0
5 -4 7 -10 4 -6 -3 -7 1 -4 9 3 9 1 16 -5 16 -6 0 -11 -5 -11 -11z"/>
</g>
</svg>
